<?xml version="1.0" standalone="no"?>
<!DOCTYPE svg PUBLIC "-//W3C//DTD SVG 1.1//EN" "http://www.w3.org/Graphics/SVG/1.1/DTD/svg11.dtd" >
<!--
2013-9-30: Created.
-->
<svg>
<metadata>
Created by iconfont
</metadata>
<defs>

<font id="iconfont" horiz-adv-x="1024" >
  <font-face
    font-family="iconfont"
    font-weight="500"
    font-stretch="normal"
    units-per-em="1024"
    ascent="896"
    descent="-128"
  />
    <missing-glyph />
    
    <glyph glyph-name="x" unicode="x" horiz-adv-x="1001"
d="M281 543q-27 -1 -53 -1h-83q-18 0 -36.5 -6t-32.5 -18.5t-23 -32t-9 -45.5v-76h912v41q0 16 -0.5 30t-0.5 18q0 13 -5 29t-17 29.5t-31.5 22.5t-49.5 9h-133v-97h-438v97zM955 310v-52q0 -23 0.5 -52t0.5 -58t-10.5 -47.5t-26 -30t-33 -16t-31.5 -4.5q-14 -1 -29.5 -0.5
t-29.5 0.5h-32l-45 128h-439l-44 -128h-29h-34q-20 0 -45 1q-25 0 -41 9.5t-25.5 23t-13.5 29.5t-4 30v167h911zM163 247q-12 0 -21 -8.5t-9 -21.5t9 -21.5t21 -8.5q13 0 22 8.5t9 21.5t-9 21.5t-22 8.5zM316 123q-8 -26 -14 -48q-5 -19 -10.5 -37t-7.5 -25t-3 -15t1 -14.5
t9.5 -10.5t21.5 -4h37h67h81h80h64h36q23 0 34 12t2 38q-5 13 -9.5 30.5t-9.5 34.5q-5 19 -11 39h-368zM336 498v228q0 11 2.5 23t10 21.5t20.5 15.5t34 6h188q31 0 51.5 -14.5t20.5 -52.5v-227h-327z" />
    

    
    <glyph glyph-name="shangsanjiao" unicode="&#59004;" d="M512.409805 491.74477 256.204389 171.483378 768.616249 171.483378Z"  horiz-adv-x="1024" />

    
    <glyph glyph-name="fabu" unicode="&#58993;" d="M898.670592 687.166208c-22.464512 22.515712-30.199808 15.367168-60.399616-14.88384l-9.5488 9.566208L422.242304 274.280192l-45.792256-110.681088 105.673728 42.735616 411.22816 410.71104-9.531392 9.566208C914.020352 656.880384 921.151488 664.633088 898.670592 687.166208zM468.742144 231.803648l-2.952192-1.191936-22.48192 22.53312 1.190912 2.952192 384.24064 385.25952 24.2432-24.311808L468.742144 231.803648zM699.807744-70.297856 140.704768-70.297856 140.704768 490.272512 616.9088 490.272512 616.9088 518.90048 112.145408 518.90048l0-617.827328 616.221696 0L728.367104 409.584384l-28.55936 0L699.807744-70.297856z"  horiz-adv-x="1024" />

    
    <glyph glyph-name="16" unicode="&#58904;" d="M900.318 402.783c-20.683 48.899-50.288 92.811-87.992 130.516s-81.616 67.309-130.515 87.991c-50.332 21.289-103.766 32.141-158.837 32.271l-0 81.596-183.72-105.725 183.72-105.725v88.888c98.365-0.26 190.806-38.676 260.389-108.259 69.82-69.821 108.272-162.652 108.272-261.393s-38.452-191.572-108.272-261.392-162.651-108.272-261.392-108.272-191.571 38.452-261.392 108.272c-69.819 69.82-108.272 162.651-108.272 261.392h-40.96c0-55.425 10.86-109.203 32.278-159.84 20.683-48.899 50.288-92.811 87.992-130.515 37.705-37.704 81.616-67.309 130.516-87.992 50.637-21.417 104.413-32.276 159.838-32.276s109.203 10.86 159.84 32.278c48.899 20.683 92.811 50.288 130.515 87.992s67.309 81.616 87.992 130.515c21.417 50.637 32.278 104.415 32.278 159.84s-10.861 109.201-32.278 159.838zM669.661 27.084l-186.294 186.296v214.808h40.96v-197.842l174.298-174.299z"  horiz-adv-x="1024" />

    
    <glyph glyph-name="c" unicode="&#58957;" d="M525.376 649.248c80.384 0 146.688-61.376 156.608-140.672l94.72 0c-11.2 134.464-120.32 240-253.504 240-133.12 0-242.24-105.6-253.376-240l98.88 0C378.688 587.872 444.928 649.248 525.376 649.248zM869.888 450.528 160.768 450.528c-85.696 0-113.152-90.24-69.888-182.976l148.544-318.528c15.616-33.536 60.992-58.112 102.784-58.112l346.24 0c41.792 0 87.168 24.576 102.784 58.112l148.544 318.528C982.976 360.288 955.584 450.528 869.888 450.528zM316.416 300.96c-20.608 0-37.312 16.768-37.312 37.312s16.704 37.312 37.312 37.312c20.672 0 37.376-16.768 37.376-37.312S337.088 300.96 316.416 300.96zM714.112 300.96c-20.608 0-37.312 16.768-37.312 37.312s16.704 37.312 37.312 37.312 37.376-16.768 37.376-37.312S734.72 300.96 714.112 300.96z"  horiz-adv-x="1024" />

    
    <glyph glyph-name="mingcheng" unicode="&#58968;" d="M632.068924 291.18831c-0.119732 0.234337-0.251744 0.459464-0.379662 0.687662L529.222437 477.139419c-0.711227 3.074012-2.246249 5.997598-4.64293 8.395204-6.813452 6.814196-17.851285 6.814196-24.666783 0-2.397705-2.396583-3.932727-5.320169-4.64293-8.395204l-100.054793-180.90621c-2.836721-2.542916-4.839413-6.040576-5.54143-10.019191l-62.449819-112.915699c-6.813452-6.813173-6.813452-17.851577 0-24.665773s17.852308-6.813173 24.666783 0l64.707325 116.996644 191.297535 0 64.708349-116.996644c6.812428-6.813173 17.851285-6.813173 24.666783 0 6.815499 6.813173 6.815499 17.851577 0 24.665773L632.068924 291.18831zM435.892065 300.517793l76.353027 138.050146L588.598119 300.517793 435.892065 300.517793zM511.699647 684.282177c-211.957911 0-383.778061-171.814134-383.778061-383.76336 0-211.95025 171.820151-383.765407 383.778061-383.765407 211.958934 0 383.781131 171.815157 383.781131 383.765407C895.480779 512.468043 723.658581 684.282177 511.699647 684.282177zM511.699647-48.359013c-192.689289 0-348.890077 156.194388-348.890077 348.876806S319.009335 649.393575 511.699647 649.393575c192.691336 0 348.893147-156.193365 348.893147-348.876806C860.592794 107.833329 704.390983-48.359013 511.699647-48.359013z"  horiz-adv-x="1024" />

    
    <glyph glyph-name="shezhi1" unicode="&#58994;" d="M946.367 321.895c0.02 21.85-13.04 38.49-31.74 41.57-18.69 3.07-79.05 13.01-85.99 14.14-6.95 1.15-14.09 8.07-15.4 11.45-1.32 3.37-8.94 22.2-11.87 29.46-2.95 7.27-1.92 16.58 4.39 25.52 6.3 8.93 39.9 55.87 48.38 67.72 8.49 11.87 8.65 34.61-4.84 48.39-13.48 13.78-47.75 47.09-56.73 55.86-8.99 8.76-31.08 8.64-42.67 0.43-11.58-8.2-71.69-51.01-71.69-51.01s-9.97-6.89-20.67-2.64c-10.7 4.24-33.43 14.07-33.43 14.07s-7.19 5.43-9.68 19.79c-2.5 14.37-11.11 65.28-14.07 82.7-2.97 17.42-20.67 29.62-37.83 29.46-17.16-0.14-57.91 0-74.33 0s-32.26-15.68-34.75-29.46c-2.49-13.79-11.56-69.16-14.07-84.45-2.52-15.3-11.44-18.48-11.44-18.48s-19.56-8.06-29.91-12.31c-10.34-4.26-15.39-2.64-30.35 7.48-14.95 10.11-44.74 31.03-63.04 43.83-18.3 12.81-38.12 7.92-49.26-3.52s-36.06-35.77-51.02-50.43c-14.95-14.66-12.61-37.54 0.58-55.71 13.2-18.18 32.34-45.43 41.35-58.21 9.01-12.78 10.84-19.5 8.36-26.82-2.49-7.34-6.64-16.58-11.43-27.72-4.81-11.13-9.69-13.64-27.86-17.01-17.36-3.21-58.42-9.92-77.4-13.31-18.99-3.37-30.66-21.43-30.66-41.81l0-64.66c0-24.34 13.2-37.24 38.42-41.93 25.22-4.69 62.66-10.66 74.77-12.61 12.1-1.95 17.67-6.6 21.41-15.54 3.73-8.94 5.13-10.12 9.37-22.57 4.26-12.47 6.46-15.55-4.98-31.67-11.44-16.13-34.31-48.11-46.03-64.51-11.74-16.4-6.45-37.83 4.98-49.85 11.44-12.03 35.47-35.64 48.97-48.97 13.49-13.33 35.19-16.28 53.36-3.52 18.19 12.75 54.98 38.99 65.69 46.62 10.7 7.63 21.91 5.28 27.85 2.94 5.94-2.35 11.25-4.6 22-9.1 10.73-4.48 13.85-11.2 16.41-23.45 2.57-12.24 10.19-56.85 13.93-78.59 3.75-21.72 18.91-33.43 40.62-33.72 21.7-0.29 33.27-0.12 61.57 0 28.29 0.13 41.86 12.61 45.45 31.38 3.59 18.76 12.45 72.94 14.22 83.72 1.78 10.76 5.94 14.73 13.63 18.47 7.7 3.74 14.32 6.47 26.84 11.88 12.51 5.4 18.91 0.66 27.7-5.72 8.8-6.39 47.51-33.78 63.78-45.31 16.28-11.53 36.73-10.33 51.9 4.4 15.18 14.73 31.62 30.99 49.27 48.38 17.64 17.4 12.16 39.59 4.4 51.46-7.77 11.88-44.49 62.95-49.71 70.23-5.21 7.28-4.4 18.62-1.75 24.63 2.64 6.01 8.44 18.24 11.72 25.22 3.29 6.97 9.6 11.22 18.18 12.9 8.58 1.69 62.72 11 83.75 14.61 21.03 3.64 31.11 19.92 31.26 39.92C946.427 275.935 946.347 304.525 946.367 321.895zM908.587 254.615c0.21-5.76-4.66-10.65-8.82-11.38-4.17-0.73-63.26-11.38-81.48-14.29-18.21-2.92-33.23-15.07-38.72-28.06-3.98-9.44-5.47-13.51-10.59-26.96-5.12-13.44-4.64-32.19 2.56-42.26 7.2-10.08 46.82-64.9 50.38-70.45s4.27-11.95-1.28-17.5-40.99-41.2-47.39-47.39c-6.41-6.19-11.83-4.8-18.79 0-6.95 4.8-39.61 26.39-64.44 44.36-16.96 12.28-32.82 12.43-48.7 6.02-15.87-6.42 1.28 0.28-22.2-8.97-23.48-9.25-30.23-27.62-33.73-48.24-3.5-20.63-10.67-62.98-11.95-70.45-1.28-7.47-5.55-11.1-13.66-11.1l-64.9 0c-8.11 0-11.74 2.99-14.52 11.95-2.77 8.97-10.03 54.87-12.8 74.29-2.78 19.43-13.82 36.12-24.77 40.56-10.94 4.45-4.98 2.14-27.32 11.1-22.34 8.97-39.63 4.5-51.23-3.84-11.61-8.34-58.64-42.69-65.33-46.96-6.68-4.28-14.65-3.28-18.35 0.42-3.7 3.7-40.56 40.56-46.54 46.54-5.98 5.98-5.36 12.92 0 20.49 5.36 7.58 28.39 40.76 40.99 57.95 12.59 17.2 17.93 34.74 9.82 53.49-8.12 18.74-4.42 10.24-12.39 28.6-7.96 18.36-24.28 24.46-38.42 26.9-14.14 2.43-68.88 11.53-76.85 13.23-7.97 1.71-11.95 7.26-11.95 14.09l0 66.18c0 9.53 7.67 12.44 12.38 13.23 4.7 0.8 54.22 9.18 73 12.39 18.79 3.2 36.36 11.32 43.55 29.03 7.19 17.7 4.27 11.1 11.1 27.32 6.83 16.23 3.8 33.94-7.68 49.96-11.49 16.01-38.85 54-44.4 61.9-5.55 7.9-5.77 12.6 0.85 19.21 6.62 6.62 42.05 42.48 46.96 46.97 4.91 4.48 12.07 5.4 18.36 0.85 6.3-4.55 49.31-35.65 64.04-46.11 14.73-10.46 32.35-12.56 49.1-5.55 16.75 7.02 10.25 4.48 26.9 11.1s24.84 19.09 28.18 39.71c3.33 20.61 11.95 74.14 12.81 77.7 0.85 3.55 5.55 10.46 11.74 10.46s65.82-0.07 69.8 0c3.99 0.07 10.3-3.29 11.32-9.18 1.02-5.9 13.02-74.29 14.94-86.25 1.92-11.95 15.58-28.57 25.54-32.73 9.96-4.16 21.35-8.75 31.31-13.09 9.97-4.34 30.13-1.91 36.15 2.28 6.03 4.18 70.52 48.81 75.43 52.37 4.91 3.56 11.52 3.27 17.64-2.85s43.34-43.19 47.54-47.53c4.19-4.34 4.66-8.66 1.14-13.66-3.53-5.01-36.72-51.8-47.54-67.46-10.81-15.65-11.73-33.73-5.41-48.96 6.33-15.22 3.99-9.39 9.11-21.91 5.13-12.53 16.28-29.03 33.59-31.88 17.31-2.85 76.92-12.74 84.82-13.95 7.9-1.21 11.1-7.18 11.1-13.37S908.377 260.385 908.587 254.615zM526.833 489.195c-110.45 0-200-89.54-200-200s89.55-200 200-200c110.46 0 200 89.54 200 200S637.293 489.195 526.833 489.195zM526.833 124.195c-91.12 0-165 73.87-165 165s73.88 165 165 165c91.13 0 165-73.87 165-165S617.963 124.195 526.833 124.195z"  horiz-adv-x="1024" />

    
    <glyph glyph-name="shouji" unicode="&#58974;" d="M740.854245 646.897731 278.138718 646.897731 278.138718 701.926022c0 6.458085 5.247514 11.715833 11.7056 11.715833l439.305351 0c6.458085 0 11.7056-5.257747 11.7056-11.715833L740.855268 646.897731zM740.854245 85.91411 278.138718 85.91411 278.138718 613.867454l462.715527 0L740.854245 85.91411zM740.854245-100.473951c0-6.447852-5.247514-11.695367-11.7056-11.695367l-439.305351 0c-6.458085 0-11.7056 5.247514-11.7056 11.695367L278.137695 52.882809l462.715527 0L740.853222-100.473951zM729.148645 746.672132l-439.305351 0c-24.711821 0-44.756343-20.044522-44.756343-44.74611l0-802.39895c0-24.722054 20.044522-44.725644 44.756343-44.725644l439.305351 0c24.711821 0 44.756343 20.00359 44.756343 44.725644L773.904988 701.926022C773.904988 726.62761 753.86149 746.672132 729.148645 746.672132zM459.919854-13.066205l99.153254 0 0-33.040511-99.153254 0 0 33.040511Z"  horiz-adv-x="1024" />

    
    <glyph glyph-name="caidan" unicode="&#59012;" d="M921.322479 594.390867l-532.119223 0c-14.128789 0-25.582655 11.453866-25.582655 25.582655s11.453866 25.582655 25.582655 25.582655l532.119223 0c14.128789 0 25.582655-11.453866 25.582655-25.582655S935.450245 594.390867 921.322479 594.390867zM917.842215 266.932884l-528.639982 0c-14.128789 0-25.582655 11.453866-25.582655 25.582655 0 14.128789 11.453866 25.582655 25.582655 25.582655l528.639982 0c14.128789 0 25.582655-11.453866 25.582655-25.582655C943.42487 278.387773 931.971004 266.932884 917.842215 266.932884zM921.322479-60.5251l-532.119223 0c-14.128789 0-25.582655 11.453866-25.582655 25.582655s11.453866 25.582655 25.582655 25.582655l532.119223 0c14.128789 0 25.582655-11.453866 25.582655-25.582655S935.450245-60.5251 921.322479-60.5251zM225.678926 594.390867l-123.001405 0c-14.128789 0-25.582655 11.453866-25.582655 25.582655s11.453866 25.582655 25.582655 25.582655l123.001405 0c14.128789 0 25.582655-11.453866 25.582655-25.582655S239.807714 594.390867 225.678926 594.390867zM225.474264 266.932884l-122.796744 0c-14.128789 0-25.582655 11.452843-25.582655 25.582655 0 14.128789 11.453866 25.582655 25.582655 25.582655l122.796744 0c14.128789 0 25.582655-11.453866 25.582655-25.582655C251.056919 278.38675 239.603053 266.932884 225.474264 266.932884zM225.678926-60.5251l-123.001405 0c-14.128789 0-25.582655 11.452843-25.582655 25.582655s11.453866 25.582655 25.582655 25.582655l123.001405 0c14.128789 0 25.582655-11.452843 25.582655-25.582655S239.807714-60.5251 225.678926-60.5251z"  horiz-adv-x="1024" />

    
    <glyph glyph-name="dingdan" unicode="&#58892;" d="M537.429 506.474c53.437 0 96.754 44.64 96.754 99.73 0 30.991-13.709 58.678-35.23 76.978 1.841-6.278 3.14-12.808 3.14-19.712 0-37.644-29.596-68.146-66.104-68.146-36.517 0-66.115 30.502-66.115 68.146 0 5.515 0.8 10.802 2.01 15.929-19.132-18.219-31.203-44.22-31.203-73.194C440.682 551.114 483.999 506.474 537.429 506.474zM534.349 633.618c35.607 0 64.472 29.749 64.472 66.46 0 36.699-28.865 66.448-64.472 66.448-35.608 0-64.474-29.749-64.474-66.448C469.875 663.367 498.74 633.618 534.349 633.618zM78.809 37.594l155.81-62.177c-12.567 25.91-62.832 417.07-62.832 417.07L78.809 37.594zM712.094-167.064l10.061 152.839-349.316-36.268L712.094-167.064zM817.639 674.851l-169.355-25.76c10.194-18.833 16.055-40.505 16.055-63.613 0-72.249-56.807-130.824-126.908-130.824-70.084 0-126.901 58.576-126.901 130.824 0 9.582 1.066 18.901 2.95 27.904l-209.025-31.788c7.536-202.06 98.011-603.591 98.011-603.591l650.886 113.984C908.113 138.623 817.639 674.851 817.639 674.851zM327.385 355.709l276.938 41.051 8.23-30.819-276.923-41.063L327.385 355.709zM386.848 122.045l-10.06 35.15 340.838 49.995 10.07-35.149L386.848 122.045zM366.201 223.267l-13.441 34.878 439.032 59.52 13.447-34.875L366.201 223.267z"  horiz-adv-x="1024" />

    
    <glyph glyph-name="chufang" unicode="&#58880;" d="M978.992081 229.991632l106.384941 0c39.929592 0 47.087357-10.128204 47.568421-32.844246 0.3983-17.488998 0.911694-37.008293-6.438755-45.248451-14.691845-16.516525-47.737827-13.76722-76.171028 11.915382-17.76574 16.048393-49.766831 18.16404-71.343579 17.490292l0-275.688378c0-64.652653-52.926075-117.61623-117.614937-117.61623L273.290818-212c-64.688862 0-117.614937 52.963577-117.614937 117.61623L155.675881 181.269693c-21.610371 0.756512-54.296848-1.165157-72.291481-17.455376-28.446133-25.682602-61.492115-28.431908-76.172322-11.915382-7.36338 8.240158-8.16774 27.844803-6.450394 45.248451 2.692406 26.525757 10.607975 32.844246 52.218704 32.844246l102.696785 0 25.959343 0 770.436679 0L978.992081 229.991632 978.992081 229.991632zM700.913901 599.281844c36.480675 22.966919 25.44207 47.174 13.887486 72.495804C695.470896 714.062126 675.506747 757.835056 714.236266 812l61.047261-43.449635c-13.632729-19.040817-2.834656-42.764248 7.605206-65.649697 25.476986-55.809872 49.852181-109.169163-42.045239-167.022263L700.913901 599.281844 700.913901 599.281844zM505.926569 599.281844c36.480675 22.966919 25.44207 47.174 13.886192 72.495804C500.483564 714.062126 480.483206 757.835056 519.211432 812l61.082176-43.449635c-13.644367-19.040817-2.833363-42.764248 7.606499-65.649697 25.478279-55.809872 49.837956-109.169163-42.045239-167.022263L505.926569 599.281844 505.926569 599.281844zM299.008336 599.281844c36.447052 22.966919 25.407154 47.174 13.851276 72.495804C293.567918 714.062126 273.566266 757.835056 312.294492 812l61.084763-43.449635c-13.683163-19.040817-2.835949-42.764248 7.602619-65.649697 25.44207-55.809872 49.815972-109.169163-42.043945-167.022263L299.008336 599.281844 299.008336 599.281844zM213.119042 148.377599 213.119042-46.970531c0-14.800472 12.000732-26.762409 26.764996-26.762409 14.799179 0 26.799912 11.961937 26.799912 26.762409L266.68395 148.377599c0 14.799179-12.000732 26.801205-26.799912 26.801205C225.119775 175.178804 213.119042 163.176778 213.119042 148.377599L213.119042 148.377599zM273.290818 387.139155 523.092272 387.139155l-16.4454 65.888935c-4.395527 17.633835 14.884529 33.082192 33.047276 33.082192l45.887283 0c18.198956 0 37.477718-15.448357 33.082192-33.082192l-16.479023-65.888935 259.193837 0c59.726921 0 109.374779-45.094563 116.703244-102.898522L156.587575 284.240633C163.868191 342.044592 213.563897 387.139155 273.290818 387.139155z"  horiz-adv-x="1134" />

    
    <glyph glyph-name="bianji" unicode="&#58965;" d="M519.715 763.46c-259.198 0-469.195-210.046-469.195-469.195 0-259.121 209.995-469.145 469.195-469.145 259.152 0 469.195 210.022 469.195 469.145 0 259.152-210.073 469.195-469.195 469.195zM426.206 278.692l212.125 209.188 73.123-75.397-209.235-212.66-76.011 78.875zM483.926 189.548l-115.502-49.152 44.612 118.894 70.891-69.746zM740.822 52.492h-0.048c0-6.343-5.2-11.538-11.538-11.538h-454.38c-6.413 0-11.538 5.2-11.538 11.538v450.962c0 6.413 5.122 11.538 11.538 11.538h322.934l-47.276-50.22h-227.089c-5.251 0-9.561-4.385-9.561-9.69v-354.334c0-5.301 4.308-9.611 9.561-9.611h357.119c5.301 0 9.662 4.308 9.662 9.611v226.841l50.622 46.921v-322.017zM771.73 470.15c-9.919-11.131-42.204-43.725-42.204-43.725l-76.617 76.288 37.638 37.613c0 0 17.219 16.386 39.516 0 22.29-16.234 41.618-37.613 41.618-37.613s9.994-21.405 0.048-32.566z"  horiz-adv-x="1024" />

    
    <glyph glyph-name="alipay" unicode="&#58999;" d="M636 207.936c61.376 111.584 83.68 217.6 83.68 217.6l-206.432 0 0 78.112 245.504 0 0 33.472-245.504 0 0 117.184-111.584 0 0-117.184-223.168 0 0-33.472 223.168 0 0-78.112-189.696 0 0-33.472 384.992 0c0-5.568 0-5.568-5.568-11.168 0-39.072-27.904-94.848-50.208-139.488-284.544 111.584-368.256 44.64-390.56 33.472-189.696-133.92-11.168-301.28 16.736-295.712 200.864-44.64 329.184 39.072 418.464 145.056 5.568-5.568 11.168-5.568 16.736-5.568 61.376-33.472 357.088-172.96 357.088-172.96s0 122.752 0 167.392c-44.64 0-206.432 55.808-323.616 94.848zM490.912 157.728c-139.488-178.56-306.88-122.752-334.784-111.584-66.944 16.736-89.28 139.488-5.568 178.56 139.488 44.64 262.24-5.568 351.52-50.208-5.568-11.168-11.168-16.736-11.168-16.736z"  horiz-adv-x="1024" />

    
    <glyph glyph-name="huahua" unicode="&#58881;" d="M142.331147 106.611501c85.975117 3.722788 177.855734 10.665921 162.500001 41.304731-11.203156 22.443152-59.380412 53.331649-106.769722 84.470857-128.031978 84.077907-132.934638 124.917034 2.505054 202.588021 47.604204 27.27418 102.546537 48.965202 163.358555 63.139016l-41.376363-98.644671c-49.501414-14.103206-82.288145-44.168965-78.279854-76.311013 5.190209-41.2331 68.723198-70.368674 141.919267-65.071018 73.196069 5.262864 128.424928 42.952254 123.234719 84.148515-2.290159 18.504446-16.393365 34.612309-37.940101 46.24423l27.345812 127.279848c223.99354 7.051603 429.837722-95.53075 490.039849-257.31546 71.192436-191.205786-88.051405-392.863622-355.530342-450.275193-229.862201-49.359174-465.022059 23.838941-571.72015 166.761048C-25.681404 91.863612 25.359063 101.958528 142.331147 106.611501L142.331147 106.611501zM336.041988 383.863013c-13.171997-29.994128-25.054629-59.95244-35.721573-89.804329 19.47147-8.553817 45.600571-13.779841 74.306356-13.779841 16.572444 0 32.249495 1.718131 46.315862 4.867868 5.869684 21.475104 11.273764 43.167149 16.284895 65.142649C403.475819 361.455677 369.794719 372.624041 336.041988 383.863013L336.041988 383.863013zM432.611393 585.305955c16.070001-5.369288 32.070416-10.665921 48.14144-16.035208 146.32153 59.631122 19.865443 187.482999 52.722782 235.44536C480.036519 787.679082 359.522772 719.814438 432.611393 585.305955L432.611393 585.305955zM441.631838 592.177456C398.178163 695.511939 443.098235 748.521247 516.188904 785.495346c-61.70741-50.253544-87.980797-113.965611-62.387909-197.397812C449.72005 589.457508 445.640128 590.817482 441.631838 592.177456L441.631838 592.177456zM343.236853 394.242408l96.354512-31.998785 39.049365 195.85876-50.110281 16.607236L343.236853 394.242408 343.236853 394.242408zM362.708324 403.406115l30.853705-10.308787 54.94131 163.537633-16.000416 5.332449L362.708324 403.406115 362.708324 403.406115zM250.389212 38.961752c-45.743834 0-82.824357-19.399839-82.824357-43.38102 0-23.982204 37.080523-43.416835 82.824357-43.416835s82.895989 19.434631 82.895989 43.416835C333.286224 19.561913 296.133046 38.961752 250.389212 38.961752L250.389212 38.961752zM845.770248 263.884454c-45.744857 0-82.862219-19.398816-82.862219-43.38102s37.116339-43.38102 82.862219-43.38102c45.741787 0 82.860173 19.398816 82.860173 43.38102S891.512035 263.884454 845.770248 263.884454L845.770248 263.884454zM828.515259 126.296843c-45.740764 0-82.897012-19.435655-82.897012-43.415812 0-23.945365 37.156248-43.417859 82.897012-43.417859 45.779649 0 82.862219 19.47147 82.862219 43.417859C911.377478 106.861188 874.295931 126.296843 828.515259 126.296843L828.515259 126.296843zM688.494225 14.874147c-45.778626 0-82.897012-19.435655-82.897012-43.417859 0-23.945365 37.117362-43.38102 82.897012-43.38102 45.743834 0 82.861196 19.434631 82.861196 43.38102C771.355421-4.561507 734.239082 14.874147 688.494225 14.874147L688.494225 14.874147zM457.594391-30.11858c-45.814442 0-82.895989-19.398816-82.895989-43.38102s37.081547-43.38102 82.895989-43.38102c45.743834 0 82.859149 19.398816 82.859149 43.38102S503.338225-30.11858 457.594391-30.11858z"  horiz-adv-x="1024" />

    
    <glyph glyph-name="weixiu" unicode="&#58947;" d="M776.055466 385.714174c0 0 57.132208-25.216311 53.139268-155.449421l41.187051-41.135886c0 0 43.840484 100.921527 27.895327 187.337689 0 0-1.313925 81.062224-146.149615 188.652638 0 0-71.76344-7.931646-66.432015 66.456574l-57.131185 57.157791-103.650685-103.651708 50.485835-50.538023c0 0 124.901685-5.252631 81.062224-107.58939L469.120912 238.248587l-35.881209 5.306866L219.318566 29.635339c0 0-14.631232-51.800783 22.588461-83.689051 0 0 23.904433-29.262464 74.41585-27.897374l209.92922 217.916125 3.991917 35.880185 213.895555 212.55707C744.140593 384.401272 756.118392 402.998839 776.055466 385.714174zM370.77607 361.862953l67.769476-67.820642 91.699492 91.672886-70.448492 70.449515c74.41585 170.107259-139.506311 236.510622-139.506311 236.510622-39.847543 10.663874-31.888268-19.911492-31.888268-19.911492 83.714633-69.083401 70.422909-91.672886 70.422909-91.672886-10.612709-79.748299-79.720669-110.323665-79.720669-110.323665-69.083401-29.209252-126.214587 67.769476-126.214587 67.769476-22.589484 3.992941-19.936051-21.275559-19.936051-21.275559C188.769806 271.452827 370.77607 361.862953 370.77607 361.862953zM584.72279 139.954911l211.242122-224.583988 103.652731 103.650685-221.908042 213.922161L584.72279 139.954911zM795.964912 68.19454l42.974767-31.204699-16.417925-50.539047-53.111638 0-16.392342 50.539047L795.964912 68.19454z"  horiz-adv-x="1024" />

    
    <glyph glyph-name="search" unicode="&#59005;" d="M964.170356-87.755278 705.680141 170.739031c46.051849 61.421908 70.974471 135.732357 70.974471 213.868949 0 95.491865-37.19718 185.259354-104.721063 252.761748C604.430132 704.873144 514.662643 742.052928 419.188174 742.052928c-95.491865 0-185.259354-37.179784-252.78426-104.683201C27.034726 497.952444 27.034726 271.171418 166.392658 131.813486 233.917564 64.311093 323.69631 27.131309 419.188174 27.131309c86.8613 0 168.991856 30.783097 233.937007 87.174432l256.556167-256.55105L964.170356-87.755278zM419.176918 85.580512c-79.874165 0-154.975631 31.102369-211.462133 87.561241-116.567879 116.561739-116.561739 306.256102 0.022513 422.867984 56.480362 56.463989 131.565455 87.566358 211.43962 87.566358 79.862909 0 154.948001-31.102369 211.411991-87.566358 56.486502-56.463989 87.593987-131.549082 87.593987-211.411991 0-79.874165-31.107485-154.964374-87.593987-211.455993C574.124919 116.682881 499.039827 85.580512 419.176918 85.580512z"  horiz-adv-x="1024" />

    
    <glyph glyph-name="tuandui1" unicode="&#59363;" d="M606.6688 701.5104c-126.8992 0-230.1184-103.2448-230.1184-230.144 0-87.7056 49.3312-164.0448 121.6768-202.88-150.6304-46.4128-260.4288-186.9056-260.4288-352.5888 0-12.16 9.8304-21.9648 21.9648-21.9648 12.1344 0 21.9648 9.8048 21.9648 21.9648 0 179.1744 145.792 324.9152 323.328 325.0176 2.432-0.2304 4.8128-0.0512 7.0656 0.4864 124.3648 2.9184 224.6656 104.9088 224.6656 229.9648C836.7872 598.2912 733.5424 701.5104 606.6688 701.5104L606.6688 701.5104zM606.6688 285.2288c-102.656 0-186.1888 83.5072-186.1888 186.1376 0 102.7072 83.5072 186.1888 186.1888 186.1888 102.656 0 186.1632-83.5072 186.1632-186.1888C792.832 368.7104 709.3248 285.2288 606.6688 285.2288L606.6688 285.2288zM867.8656 176.3264c-8.576 8.6016-22.4768 8.6016-31.0784 0.0512-8.576-8.576-8.6016-22.4768-0.0512-31.0784 61.184-61.3376 94.848-142.848 94.848-229.4016 0-12.16 9.8304-21.9648 21.9648-21.9648 12.1344 0 21.9648 9.8048 21.9648 21.9648C975.5392 14.176 937.3184 106.72 867.8656 176.3264L867.8656 176.3264zM374.2208 279.5968c0 0 0 0.0512 0 0.0768 0 0.0256 0 0.0512 0 0.0512 0 12.16-9.8304 21.9904-21.9648 21.9904-79.7184 0-144.5632 69.2992-144.5632 154.4448 0 85.1456 64.8448 154.4448 144.5632 154.4448 12.1344 0 21.9648 9.856 21.9648 21.9648 0 12.1344-9.8304 21.9648-21.9648 21.9648-103.936 0-188.4928-89.0112-188.4928-198.4 0-72.832 37.504-136.6016 93.2608-171.0848-118.5792-42.0864-204.2624-160.4096-204.2624-299.52 0-12.1344 9.8304-21.9648 21.9648-21.9648 12.1344 0 21.9648 9.8304 21.9648 21.9648 0 150.016 114.6368 272.0256 255.5904 272.0256C364.3904 257.6064 374.1952 267.4368 374.2208 279.5968L374.2208 279.5968zM374.2208 279.5968"  horiz-adv-x="1024" />

    
    <glyph glyph-name="dianti" unicode="&#58952;" d="M442.816 684.16m-64.064 0a1.001 1.001 0 1 0 128.128 0 1.001 1.001 0 1 0-128.128 0ZM846.08 679.552 846.08 679.68c0 0-134.464 0-160.128 0-25.792 0-39.488-16.064-39.488-16.064L501.568 517.376 501.568 550.72c0 32.512-26.368 58.752-58.752 58.752-32.512 0-58.88-26.304-58.88-58.752l0-152.128L266.368 279.808 179.776 279.808C115.84 279.808 64 228.032 64 164.032c0-63.872 51.776-115.712 115.712-115.712 0 0 150.144 0 158.528 0 8.448 0 18.432 5.248 18.432 5.248s390.528 379.072 398.208 386.944c7.616 7.808 17.472 7.68 17.472 7.68l73.6 0L845.952 448.32C909.12 449.28 960 500.608 960 563.968 960 627.264 909.12 678.656 846.08 679.552zM842.88 505.024l-96.832 0-421.056-398.72L176.576 106.304c-31.68 0-57.344 25.664-57.344 57.344 0 31.68 25.664 57.344 57.344 57.344l106.432 0 412.096 399.168 147.776-0.448c31.616 0 57.344-25.664 57.344-57.344C900.16 530.624 874.496 505.024 842.88 505.024zM795.328 103.488l0.32 0 0 151.808c0 6.656-5.376 12.032-12.032 12.032L633.6 267.328l0-0.192c-10.816-0.448-19.712-13.696-19.712-30.08 0-16.448 8.896-29.696 19.84-30.144L633.6 206.848l60.16 0-94.464-94.464c-11.456-11.456-11.456-30.208 0-41.728 11.648-11.648 30.336-11.648 41.92 0l93.824 93.824 0-59.52c0 0 0 0 0-0.064 0 0 0 0 0-0.128l0-1.344 0.256 0c1.088-10.496 14.016-18.816 29.952-18.816C781.312 84.672 794.176 92.992 795.328 103.488z"  horiz-adv-x="1024" />

    
    <glyph glyph-name="gongyi" unicode="&#58998;" d="M535.36-127.84c-22.784 0-49.408 5.856-81.44 21.344-22.24 10.784-94.432 48.128-145.568 74.592l-41.632 21.504c-35.232 18.080-46.4 14.4-71.936-1.76l-71.264-46.304-123.52 274.272 14.336 6.656c4.864 2.272 119.68 55.648 173.76 76.96 89.152 35.136 133.952 6.944 181.376-22.944l6.944-4.384c20.992-13.12 86.464-60.896 89.248-62.912 0 0 0 0 0 0 0.096 0 24-13.696 56.512-24.32 3.424 2.048 15.040 9.472 26.304 16.64 12 7.616 23.68 15.008 25.728 16.16 15.616 8.832 36.672 21.536 60.544 36.32 57.728 35.744 99.84 49.344 137.344 11.52 19.648 14.368 44.096 21.92 71.648 21.92 20.32 0 38.272-7.872 49.28-21.568 3.552-4.48 6.272-9.44 8.096-14.752 67.616 31.744 101.184 7.456 115.68-11.328 9.92-12.928 13.856-26.72 11.68-41.024-3.264-21.664-19.936-42.496-52.512-65.6-28.288-19.936-295.328-196.768-332.832-218.368-5.472-3.168-10.912-6.56-16.384-10.016-24.064-15.104-51.936-32.608-91.392-32.608zM229.376 33.696c14.656 0 30.912-4.768 52-15.648l41.664-21.536c50.88-26.304 122.72-63.456 144.864-74.176 71.424-34.656 104.128-14.112 141.952 9.6 5.792 3.648 11.552 7.264 17.408 10.624 37.152 21.408 302.24 196.992 330.336 216.768 30.208 21.472 38.048 35.904 39.328 44.256 0.512 3.456 0.512 8.96-5.44 16.704-16.544 21.44-50.816 18.272-96.608-8.704l-31.776-18.784 8.032 36.032c1.536 6.88 0.512 12.608-3.040 17.024-4.8 6.016-13.92 9.6-24.32 9.6-25.664 0-46.464-7.968-61.92-23.648l-12.96-13.184-11.2 14.72c-22.56 29.792-42.016 33.28-106.048-6.496-24.32-15.072-45.728-27.968-61.696-36.992-2.144-1.216-12.992-8.128-24.256-15.296 8.192-1.152 16.512-1.824 24.768-1.824 81.76 0 136.224-11.904 136.224-69.952 0-37.056-42.336-52.416-82.016-54.4l-164.864-0.032c-58.208 0-136.736 31.968-140.032 33.312l12.16 29.632c0.736-0.32 76.032-30.944 127.904-30.944h163.968c16.128 0.832 50.912 7.424 50.912 22.432 0 16 0 37.952-104.224 37.952-70.272 0-139.424 40.064-142.336 41.76-2.016 1.376-68.672 50.016-88.672 62.528l-7.040 4.416c-45.568 28.64-78.528 49.408-152.576 20.256-42.080-16.64-124.48-54.272-157.664-69.6l95.2-211.36 40.096 26.016c18.72 11.904 34.112 18.944 51.872 18.944zM517.952 267.328h-1.792c-13.856 0-26.944 6.080-35.968 16.704-34.048 40.416-79.104 77.344-122.656 113.056-97.696 80.032-197.856 162.112-197.856 292.96 0 121.28 84.832 205.952 206.304 205.952 61.76 0 114.624-36.672 151.040-71.712 36.48 35.040 89.408 71.712 151.264 71.712 121.472 0 206.272-84.672 206.272-205.952 0-130.912-100.224-212.96-197.152-292.32-43.744-35.872-89.024-72.928-123.52-113.696-8.928-10.624-22.048-16.704-35.936-16.704zM365.984 864c-102.624 0-174.304-71.52-174.304-173.952 0-115.712 94.208-192.896 185.344-267.552 45.504-37.312 91.712-75.2 127.648-117.824 2.88-3.392 7.104-5.376 11.52-5.376h1.792c4.416 0 8.608 1.984 11.456 5.376 36.416 43.008 82.816 81.024 127.744 117.792 91.168 74.656 185.408 151.808 185.408 267.584-0.032 102.432-71.68 173.952-174.304 173.952-60.48 0-113.472-46.016-139.68-73.408l-11.552-12.096-11.584 12.096c-26.208 27.392-79.136 73.408-139.488 73.408z"  horiz-adv-x="1030" />

    
    <glyph glyph-name="yisheng" unicode="&#58951;" d="M832.157205-147.391517c-76.362178 0.23536-165.571966-0.166799-292.970518-0.181125l0 46.975894c41.581024 22.223141 86.819344 259.036661 120.945583 258.117732 131.37512-26.881231 224.590128-101.865016 224.590128-244.406452C882.970498-123.932222 865.18339-147.488731 832.157205-147.391517L832.157205-147.391517zM718.594777 328.779464c-28.939099-96.553033-104.71697-165.444053-193.654558-165.444053-89.002057 0-164.826999 69.004607-193.71084 165.67532-13.308097 6.202259-29.578666 20.053732-35.656081 55.381331-7.933693 46.225811 20.580734 57.294914 20.580734 57.294914 2.051729 0.106424 4.172019-1.521656 6.299473-4.379751 4.380774 12.780071 12.286838 24.02416 21.902846 33.487695 36.386722 35.766598 103.332437 54.867632 184.15009 55.222719 73.230861 0.320295 124.437104-4.380774 176.530552-54.172807 9.162684-8.753361 17.786085-22.361287 22.457478-36.378535 2.600221 4.046153 5.201465 6.40999 7.691169 6.27696 0 0 28.855188-11.033287 20.819165-57.140395C749.648027 348.158836 732.280474 334.657334 718.594777 328.779464L718.594777 328.779464zM308.972469 495.186448 308.972469 689.598252c0 0 94.682429 58.350966 208.172203 58.350966 109.472274 0 219.557508-58.350966 219.557508-58.350966l0-194.627722c0 0-63.206554 71.429843-213.875089 71.429843C371.25907 566.400373 308.972469 495.186448 308.972469 495.186448L308.972469 495.186448zM582.228993 642.226339l0 25.393343-46.935985 0L535.293007 714.511665l-24.938995 0 0-46.891983-46.720068 0 0-25.393343 46.720068 0 0-46.850028 24.938995 0 0 46.850028L582.228993 642.226339 582.228993 642.226339zM518.243703-100.596747l0-46.975894c-127.397528 0.014326-216.607316 0.416486-292.975635 0.181125-33.013905-0.097214-50.814316 23.459295-52.559053 60.507072 0 142.541437 93.216032 217.525222 224.582965 244.406452C431.432545 158.439914 476.649376-78.373607 518.243703-100.596747L518.243703-100.596747zM518.243703-100.596747"  horiz-adv-x="1024" />

    
    <glyph glyph-name="xiaoxi" unicode="&#59121;" d="M820.232618 151.173416c0 74.695213 0 298.774711 0 298.774711 0 164.994822-138.01126 298.771641-308.232107 298.771641-170.220846 0-308.234153-133.776819-308.234153-298.771641 0 0 0-224.079498 0-298.774711 0-74.691119-77.058027-149.382239-77.058027-149.382239l770.58436 0C897.291668 1.791178 820.232618 76.482297 820.232618 151.173416zM512.000512-147.595154c63.850214 0 115.587552 33.443693 115.587552 74.691119L396.411937-72.904035C396.411937-114.152485 448.148251-147.595154 512.000512-147.595154z"  horiz-adv-x="1024" />

    
    <glyph glyph-name="yisheng1" unicode="&#58882;" d="M697.278797 698.587997C621.128443 788.620523 485.407342 775.175303 429.563476 724.512437c-8.571213-7.760754-73.945129 1.110287-103.089913-27.03575-29.131481-28.116361-66.081021-78.764901-66.081021-164.311253s43.685965-139.338489 43.685965-139.338489-0.86981 6.094812-1.877767 15.358803c-2.615571 24.14184-6.217608 70.363558 1.877767 91.362824 11.544941 23.439852 87.372953 32.616862 141.156904 123.775025 35.846416-64.138786 222.947721-102.396111 245.342778-121.55445 18.187221-15.533788 17.682731-101.371782 20.773116-118.543883 0.716314-3.989871 1.614777-4.281513 3.010567 0.876973 7.357572 27.370371 45.657876 81.688487 46.790676 112.055099C762.285347 527.539296 773.47213 608.568774 697.278797 698.587997zM699.067536 478.437995c-2.2656 7.117095-5.02648 12.700253-8.490372 15.665795C668.182109 513.262128 481.080803 551.518431 445.234387 615.64289c-34.911114-59.140958-78.984912-83.734076-108.869546-100.130512-16.074094-9.221012-41.12156-78.913281-9.162684-159.460782 30.951943-70.524217 86.23299-132.119063 182.66732-132.119063 87.73725 0 141.43422 50.92688 173.70725 113.210411 0 0 0.01535 0.058328 0.029676 0.071631 1.489934 2.879584 2.828418 5.831822 4.223185 8.754385C702.122105 380.134085 707.733916 444.841829 699.067536 478.437995zM644.23879 238.384687 511.864924 88.759925C572.808948 88.876582 634.45496 170.812709 644.23879 238.384687zM511.864924 88.759925l-132.3534 149.566434C389.30968 170.740054 450.942389 88.876582 511.864924 88.759925zM676.789137 229.791985c-12.691043-76.369342-76.711126-161.03872-147.959843-173.079964-0.182149-0.058328-0.342808-0.073678-0.524956-0.116657-4.479011-116.482945-59.849086-185.587835-150.299121-185.587835-81.651648 0-111.857601 53.104475-116.422569 81.219813-0.227174 1.417279 0.035816 2.747577 0.167822 4.120854-47.682999 7.832386-84.121909 49.145303-84.121909 99.047854 0 55.501058 45.016263 100.510158 100.487645 100.510158 55.487755 0 100.496855-45.0091 100.496855-100.510158 0-49.758264-36.226063-90.981131-83.71361-98.989525 1.966795-8.826016 15.052834-51.907207 83.105766-51.907207 96.178503 0 114.38619 96.755648 116.900453 152.212704-71.233368 12.041244-135.217634 96.637967-147.94654 173.006286C204.743104 188.261103 43.033096 92.632115 43.033096-95.499659c0-6.91141 0-13.005198 0-18.675338 0-27.751041 22.50455-50.240241 50.247404-50.240241l421.856957 0 415.58102 0c27.742854 0 50.247404 22.4892 50.247404 50.240241 0 5.67014 0 11.762905 0 18.675338C980.965881 92.733423 819.058374 188.407436 676.789137 229.791985zM278.380218 90.059524c-18.500353 0-33.493835-15.007809-33.493835-33.492812 0-18.501376 14.993482-33.493835 33.493835-33.493835 18.501376 0 33.500998 14.992459 33.500998 33.493835C311.881217 75.052738 296.881594 90.059524 278.380218 90.059524zM278.380218 122.590428c-36.979216 0-66.99381-30.001291-66.99381-66.98767 0-37.030381 30.014594-67.016323 66.99381-67.016323 37.001729 0 66.995857 29.985942 66.995857 67.016323C345.375052 92.589137 315.381947 122.590428 278.380218 122.590428zM278.380218 6.325447c-27.706015 0-50.240241 22.534226-50.240241 50.241264 0 27.706015 22.534226 50.255591 50.240241 50.255591 27.707039 0 50.247404-22.549575 50.247404-50.255591C328.627622 28.859673 306.087257 6.325447 278.380218 6.325447z"  horiz-adv-x="1024" />

    
    <glyph glyph-name="icongender" unicode="&#58969;" d="M511.999488-99.285892c-53.895491 0-106.188484 10.558473-155.424862 31.384801-47.548946 20.111037-90.248444 48.898687-126.912481 85.562724-36.665061 36.665061-65.451688 79.364559-85.563748 126.912481-20.825304 49.236378-31.383778 101.529371-31.383778 155.424862 0 53.895491 10.559497 106.188484 31.383778 155.424862 20.11206 47.547923 48.89971 90.24742 85.563748 126.912481 36.664038 36.664038 79.363536 65.451688 126.912481 85.563748 49.236378 20.825304 101.528348 31.383778 155.424862 31.383778 53.895491 0 106.188484-10.559497 155.424862-31.383778 47.548946-20.111037 90.24742-48.89971 126.912481-85.563748 36.664038-36.665061 65.451688-79.364559 85.562724-126.912481 20.826328-49.236378 31.384801-101.529371 31.384801-155.424862 0-53.895491-10.558473-106.188484-31.384801-155.424862-20.111037-47.548946-48.898687-90.24742-85.562724-126.912481-36.665061-36.664038-79.364559-65.451688-126.912481-85.562724C618.186949-88.726396 565.894979-99.285892 511.999488-99.285892zM511.999488 666.539071c-202.110137 0-366.539071-164.428933-366.539071-366.539071 0-202.111161 164.428933-366.539071 366.539071-366.539071 202.111161 0 366.539071 164.428933 366.539071 366.539071C878.538559 502.110137 714.110649 666.539071 511.999488 666.539071zM430.520779 276.660432c48.702212 6.750751 86.213547 48.53132 86.213547 99.089809 0 55.283094-44.799322 100.081393-100.084463 100.081393-55.262628 0-100.082416-44.798299-100.082416-100.081393 0-50.559513 37.509289-92.340081 86.23606-99.089809l0-48.185442-64.819285 0 0-27.675316 64.819285 0 0-64.837704 27.695782 0 0 64.818261 64.815191 0 0 27.67327-64.794725 0L430.519756 276.660432 430.520779 276.660432 430.520779 276.660432zM344.305185 375.751265c0 39.990806 32.378431 72.366168 72.344678 72.366168 39.990806 0 72.365144-32.396851 72.365144-72.366168 0-39.968293-32.374338-72.366168-72.365144-72.366168C376.683617 303.385097 344.305185 335.782971 344.305185 375.751265L344.305185 375.751265 344.305185 375.751265zM507.244184 223.192683c0.020466-55.286164 44.841278-100.088556 100.146884-100.06195 55.282071 0.021489 100.05888 44.841278 100.039437 100.124372-0.022513 50.557466-37.553291 92.315522-86.255503 99.067296l-0.046049 101.550861 26.468838-26.486234 19.583011 19.583011-46.092781 46.051849 0 0 0 0-13.870916 13.848403-59.855226-59.917648 19.586081-19.568684 26.486234 26.510794 0.047072-101.550861C544.73096 315.550161 507.219625 273.751173 507.244184 223.192683L507.244184 223.192683 507.244184 223.192683zM679.692768 223.255105c0.042979-39.990806-32.354895-72.386634-72.345702-72.409147-39.99183-0.021489-72.367191 32.376385-72.386634 72.346725 0 39.965224 32.352849 72.363098 72.344678 72.381517C647.272381 295.620249 679.669232 263.223399 679.692768 223.255105L679.692768 223.255105 679.692768 223.255105zM679.692768 223.255105"  horiz-adv-x="1024" />

    
    <glyph glyph-name="weibiaoti3" unicode="&#58970;" d="M511.262 766.867c-264.471 0-479.632-215.161-479.632-479.628 0-264.471 215.161-479.632 479.632-479.632 264.467 0 479.628 215.161 479.628 479.632 0 264.467-215.161 479.628-479.628 479.628zM511.262-169.813c-252.020 0-457.054 205.033-457.054 457.054 0 252.017 205.035 457.050 457.054 457.050 252.017 0 457.050-205.033 457.050-457.050 0-252.022-205.033-457.054-457.050-457.054zM380.75 515.518h39.511v-55.316h-39.511v55.316zM380.75 418.151h39.511v-55.316h-39.511v55.316zM380.75 320.783h39.511v-55.316h-39.511v55.316zM380.75 223.416h39.511v-55.316h-39.511v55.316zM380.75 126.048h39.511v-55.316h-39.511v55.316zM314.52 515.518h39.511v-55.316h-39.511v55.316zM314.52 418.151h39.511v-55.316h-39.511v55.316zM314.52 320.783h39.511v-55.316h-39.511v55.316zM314.52 223.416h39.511v-55.316h-39.511v55.316zM314.52 126.048h39.511v-55.316h-39.511v55.316zM589.519 452.487l-116.2-77.63v203.879h-219.006v-571.222h219.006v18.749l252.169 3.384 0.524 248.308 155.725 1.389-292.217 173.143zM450.742 30.092h-173.85l-0 526.066h173.85v-526.066zM707.988 295.857l-0.524-248.391-88.074-1.181v167.63h-70.746v-168.58l-75.259-1.009-0.065 305.809 116.202 76.013 218.329-129.399-99.862-0.892zM569.529 378.215c0-11.040 8.95-19.991 19.991-19.991s19.991 8.95 19.991 19.991c0 11.040-8.95 19.991-19.991 19.991-11.040 0-19.991-8.95-19.991-19.991z"  horiz-adv-x="1024" />

    
    <glyph glyph-name="qiandai" unicode="&#59015;" d="M526.001899 118.287425l0 96.803743c23.266913-5.9055 40.404222-25.341155 40.404222-48.402383C566.406121 143.62858 549.268812 124.197018 526.001899 118.287425zM456.05585 301.323135c0 21.542642 14.969946 39.916105 35.909861 47.064922l0-94.14417C471.02682 261.389634 456.05585 279.769236 456.05585 301.323135zM526.001899 249.757712l0 99.952456c10.895141-2.753717 20.713764-8.461719 28.045753-16.692171 6.256494-7.007601 17.017582-7.629771 24.032346-1.37737 7.012717 6.257517 7.630794 17.012466 1.375324 24.033369-13.766538 15.436574-32.732495 25.412786-53.453423 28.690436L526.001899 405.457844c0 9.397021-7.618515 17.013489-17.017582 17.013489-9.400091 0-17.017582-7.616468-17.017582-17.013489l0-21.845541c-39.951921-8.355295-69.947072-42.046628-69.947072-82.289168 0-40.246633 29.994128-73.955362 69.947072-82.312704l0-99.381451c-20.939915 7.145747-35.909861 25.51307-35.909861 47.058782 0 9.399067-7.618515 17.018605-17.018605 17.018605s-17.017582-7.619538-17.017582-17.018605c0-40.23947 29.994128-73.927733 69.947072-82.284051l0-21.858844c0-9.399067 7.617491-17.018605 17.017582-17.018605 9.399067 0 17.017582 7.619538 17.017582 17.018605l0 21.081131c42.172495 6.687306 74.440409 41.333384 74.440409 83.060741C600.441285 208.421258 568.17337 243.074499 526.001899 249.757712zM511.230474-46.606089c-144.184867 0-261.489526 107.206674-261.489526 238.981906 0 136.53463 147.556661 263.517719 207.185736 312.621067l109.438505 0c59.768245-48.719608 206.354811-174.014242 206.354811-312.621067C772.721023 60.599561 655.41841-46.606089 511.230474-46.606089zM648.663566 650.751502l-90.427522-111.718431-93.950765 0-90.466408 111.718431L648.663566 650.751502zM592.658018 527.454362l104.904235 129.606847c4.128017 5.099135 4.953825 12.120039 2.127454 18.034748-2.819209 5.924943-8.794293 9.692756-15.356756 9.692756L338.140277 684.788713c-6.560416 0-12.535501-3.767813-15.361873-9.692756-2.819209-5.922896-1.995447-12.935614 2.133593-18.034748l105.270579-130.000819C364.366591 472.463933 215.706807 340.61707 215.706807 192.375817c0-150.541645 132.572388-273.018094 295.523667-273.018094 162.952302 0 295.525714 122.476449 295.525714 273.018094C806.757211 342.976814 658.44842 473.455517 592.658018 527.454362z"  horiz-adv-x="1024" />

    
    <glyph glyph-name="chuang" unicode="&#58953;" d="M929.251567 329.642111l-61.814858 0c0 0 0.784876 214.08896 0 309.075311C866.650811 733.855222 754.098385 731.44022 754.098385 731.44022s-334.671269 0-458.452433 0S156.561243 669.624339 156.561243 669.624339l0-339.983251c0 0-49.25889 0-61.813834 0-12.55699 0-30.90794-12.616342-30.90794-28.070312 0-15.454994 0-404.635737 0-404.635737l61.814858 0c0 0-1.932002 92.721775 92.722798 92.721775l587.243705 0c79.289857 0 103.014188-92.721775 103.014188-92.721775l51.523467 0c0 0 0 386.283764 0 404.635737C960.158485 319.922748 929.251567 329.642111 929.251567 329.642111zM870.332666 298.794545l-1.759063 0C869.040231 298.808872 869.625562 298.815011 870.332666 298.794545zM249.284041 669.624339c38.966477 0 525.428847 0 525.428847 0s30.90794 2.958378 30.90794-30.90794l0-339.922876-0.002047 0c-0.075725 2.572592-4.448312 123.56934-154.536632 123.56934-112.070448 0-108.11537-61.814858-139.083685-61.814858-32.810267 0-33.95637 61.814858-169.991626 61.814858-61.872163 0-100.476389-30.79947-123.629715-61.651129L218.377124 638.717422C218.377124 638.717422 210.317565 669.624339 249.284041 669.624339zM342.007863 391.456968c108.810195 0 137.182382-61.814858 169.991626-61.814858 30.968315 0 45.153386 61.814858 139.083685 61.814858 118.438483 0 154.538679-92.722798 154.538679-92.722798L187.469184 298.73417C187.469184 298.73417 233.197668 391.456968 342.007863 391.456968zM898.343627 20.5668l-30.906917 0c0 0 8.088212 30.906917-30.90794 30.906917s-649.058562 0-649.058562 0-30.90794 5.946432-30.90794-30.906917l-30.906917 0L125.65535 267.82623c0 0 0.076748 0.680499 0.39295 1.832741l0-1.953492L898.343627 267.70548C898.343627 233.350021 898.343627 20.5668 898.343627 20.5668z"  horiz-adv-x="1024" />

    
    <glyph glyph-name="tetepenqiqingxi" unicode="&#58958;" d="M703.863028 92.744942c5.178843-5.178843 3.67165-11.126334-3.348537-13.215532l-54.973401-16.35836c-7.019183-2.089198-14.382552 1.97079-16.363377 9.02108l-16.178741 57.594431c-1.980825 7.051294 1.588473 15.815489 7.930322 19.477105l5.227009 3.017396c6.342853 3.661615 15.768327 2.420339 20.946166-2.759507L703.863028 92.744942zM441.221145 556.509756c6.342853 3.661615 14.528054 1.468058 18.189669-4.873792l62.156147-107.658919c3.661615-6.342853 7.409528-12.834218 8.328695-14.426705 0.919167-1.591483 1.173041-4.334935 0.56294-6.097006-0.610102-1.762071-3.038468-8.875579-5.397596-15.807462l-11.619031-34.152667c-2.359128-6.932886-9.477653-15.601753-15.820507-19.264372l-39.379675-22.73533c-6.342853-3.661615-17.367838-5.300261-24.501415-3.641546l-39.758982 9.244851c-7.133577 1.658715-15.965004 8.20527-19.627623 14.547119l-65.333093 113.163885c-3.661615 6.342853-1.469061 14.52705 4.873792 18.189669L441.221145 556.509756zM160.788968-64.800853c-7.400497-8.117969-7.525929-20.162466-0.278961-26.765215 7.247972-6.601745 19.232261-5.361472 26.633762 2.756497l69.263635 75.982784c7.400497 8.118972 7.527936 20.165476 0.283978 26.769228-7.244961 6.603752-19.227244 5.366489-26.627741-2.75148L160.788968-64.800853zM178.780956 121.653541c10.729968 2.350097 21.230144-3.573311 23.33038-13.164355 2.100236-9.591044-4.959086-19.3597-15.690057-21.709797l-100.447072-21.998793c-10.729968-2.350097-21.230144 3.573311-23.332387 13.165359-2.101239 9.591044 4.959086 19.360704 15.690057 21.7108L178.780956 121.653541zM197.187372 62.529841c9.513778 5.492925 21.310421 3.037465 26.214317-5.4568 4.903895-8.494265 1.132903-19.938695-8.380875-25.430616l-89.047797-51.411127c-9.513778-5.492925-21.310421-3.037465-26.214317 5.4568-4.903895 8.494265-1.132903 19.938695 8.380875 25.430616L197.187372 62.529841zM858.845993 296.114614c-3.661615 6.342853-10.983843 15.677012-16.273066 20.742464l-120.588465 115.515989c-5.289223 5.066456-14.805008 6.215414-21.146858 2.552795l-94.25574-54.418489c-6.342853-3.661615-9.601079-0.984392-7.241951 5.948494l13.41522 39.425834c2.359128 6.931883 1.292453 17.79531-2.369163 24.13716l-138.070697 239.142922c-3.661615 6.342853-11.846816 8.534404-18.188666 4.873792l-1.62259-0.936226c-6.342853-3.661615-16.720608-9.654262-23.061454-13.315877l-241.112709-139.205607c-6.342853-3.661615-8.534404-11.846816-4.873792-18.189669l137.741563-238.573962c3.661615-6.342853 12.494046-12.892418 19.625616-14.55615l39.077635-9.113399c7.13157-1.662729 7.7788-6.01974 1.435947-9.682359l-89.77129-51.829569c-6.342853-3.661615-8.534404-11.846816-4.873792-18.189669l14.627396-25.335288c3.661615-6.342853 1.469061-14.528054-4.873792-18.189669l-26.700993-15.417117c-6.34185-3.661615-8.534404-11.846816-4.873792-18.189669l19.996896-34.63533c3.661615-6.342853 11.846816-8.534404 18.189669-4.873792l26.69999 15.41511c6.342853 3.661615 14.528054 1.469061 18.189669-4.873792l13.422244-23.2491c3.661615-6.342853 11.846816-8.535407 18.188666-4.873792l252.808003 145.958874c6.342853 3.661615 15.767323 2.420339 20.943156-2.760511l102.087724-102.162983c5.175832-5.18085 6.45524-11.126334 2.840787-13.212521-3.614453-2.086188-3.575318-8.983953 0.086297-15.324799l23.447785-40.613928c3.661615-6.343857 11.846816-8.535407 18.189669-4.873792l155.120438 89.559561c6.342853 3.661615 8.535407 11.846816 4.873792 18.189669L858.845993 296.114614zM531.518246 363.554967c-2.361135-6.932886-9.481667-15.600749-15.82452-19.263368l-59.460861-34.329275c-6.342853-3.661615-17.367838-5.298254-24.499408-3.637532l-53.705031 12.510101c-7.13157 1.660722-15.964001 8.210287-19.62662 14.552137l-97.086493 168.158358c-3.661615 6.343857-1.468058 14.528054 4.873792 18.189669l167.054555 96.449298c6.343857 3.661615 14.528054 1.469061 18.189669-4.873792l96.784453-167.635557c3.661615-6.342853 4.72528-17.204274 2.364145-24.136157L531.518246 363.554967z"  horiz-adv-x="1024" />

    
    <glyph glyph-name="star" unicode="&#59014;" d="M965.888 495.211c-3.819 11.371-13.632 19.691-25.493 21.504l-270.315 41.749-120.811 258.581c-5.248 11.221-16.512 18.453-28.907 18.475h-0.064c-12.352 0-23.616-7.125-28.928-18.325l-122.027-258.325-271.147-40.619c-11.712-2.005-21.333-10.325-25.024-21.653-3.712-11.221-0.789-23.659 7.467-32.192l196.437-202.069-46.891-284.715c-1.984-12.032 3.093-24.235 13.12-31.339 9.984-7.083 23.168-7.808 33.877-1.899l241.813 133.013 241.323-133.845c4.843-2.688 10.176-4.032 15.531-4.032 6.464 0 12.885 1.92 18.347 5.845 10.027 7.040 15.189 19.179 13.227 31.317l-45.909 284.843 196.907 201.216c8.32 8.533 11.243 21.12 7.467 32.469v0zM965.888 495.211z"  horiz-adv-x="1024" />

    
    <glyph glyph-name="fenxiang" unicode="&#58967;" d="M873.843478-26.022858C873.843478 48.171427 813.113043 108.342858 738.226086 108.342858 704.93913 108.342858 674.852173 95.931427 651.234784 76.182858L382.469565 246.377142C392.8 265.371427 399.234784 286.731427 399.234784 309.805715 399.234784 330.822858 393.913043 350.468573 385.217392 368.16L654.678262 540.582857C677.773914 522.514286 706.573914 511.337143 738.226086 511.337143 813.113043 511.337143 873.843478 571.474286 873.843478 645.634286 873.843478 719.862857 813.113043 780 738.226086 780 663.373914 780 602.643478 719.862857 602.643478 645.634286 602.643478 627.325714 606.4 609.874286 613.113043 593.965714L342.504349 420.754285 345.426086 416.331427C322.643478 433.542858 294.469565 444.171427 263.617391 444.171427 188.730435 444.171427 128 384.034285 128 309.84 128 235.611427 188.730435 175.508573 263.617391 175.508573 289.982609 175.508573 314.330435 183.257142 335.130435 196.114285L611.686957 20.982858C606.121738 6.342858 602.678262-9.394285 602.678262-26.022858 602.678262-100.217142 663.373914-160.354285 738.26087-160.354285 813.147827-160.354285 873.913043-100.182858 873.913043-26.022858L873.843478-26.022858 873.843478-26.022858ZM195.791304 309.84C195.791304 346.937142 226.156522 377.005715 263.582609 377.005715 301.043478 377.005715 331.408694 346.937142 331.408694 309.84 331.408694 272.742858 301.078261 242.674285 263.582609 242.674285 226.156522 242.674285 195.791304 272.742858 195.791304 309.84L195.791304 309.84ZM672 648.834286C672 685.931428 702.365216 716 739.791306 716 777.252173 716 807.617392 685.931428 807.617392 648.834286 807.617392 611.737143 777.286957 581.668572 739.791306 581.668572 702.365216 581.668572 672 611.737143 672 648.834286L672 648.834286ZM670.4-26.022858C670.4 11.074285 700.765216 41.142858 738.226086 41.142858 775.652173 41.142858 806.017392 11.074285 806.017392-26.022858 806.017392-63.12 775.652173-93.188573 738.226086-93.188573 700.765216-93.188573 670.4-63.12 670.4-26.022858L670.4-26.022858Z"  horiz-adv-x="1024" />

    
    <glyph glyph-name="weibo" unicode="&#58977;" d="M696.243211 307.80578c-29.770024 5.573949-15.301498 21.042245-15.301498 21.042245s29.131481 46.336328-5.765307 80.026638c-43.24185 41.727357-148.322094-5.306866-148.322094-5.306866-40.129976-12.019755-29.492708 5.483898-23.820522 35.278481 0 35.104519-12.453636 94.51256-119.361505 59.422368-106.806561-35.278481-198.506053-158.8908-198.506053-158.8908-63.770396-82.138742-55.327096-145.627728-55.327096-145.627728 15.930831-140.14997 170.208567-178.620144 290.202475-187.726545 126.245286-9.553587 296.626791 41.998533 348.297614 147.933237C819.99777 260.063429 726.113519 302.054799 696.243211 307.80578zM429.382351 45.550821c-125.32431-5.65786-226.640834 55.004755-226.640834 135.733381 0 80.811514 101.316523 145.620565 226.640834 151.197584 125.414361 5.573949 226.925313-44.300972 226.925313-124.95285C656.307663 126.813612 554.796712 51.037788 429.382351 45.550821zM404.384004 279.248374C278.330076 265.009068 292.898887 151.04448 292.898887 151.04448s-1.292436-36.086893 33.794687-54.466496c73.754794-38.556131 149.690254-15.214517 188.073446 32.607652C553.147142 177.029294 530.614963 293.389442 404.384004 279.248374zM372.58988 119.298452c-23.536043-2.663666-42.497906 10.429537-42.497906 29.440519 0 18.916838 16.847713 38.737256 40.389896 41.105187 27.036773 2.483564 44.627407-12.550851 44.627407-31.558763C415.108253 139.368556 396.034848 121.867974 372.58988 119.298452zM446.893166 180.393925c-7.973602-5.755074-17.785062-4.955872-21.99085 1.945305-4.393054 6.723122-2.747577 17.510816 5.314029 23.171746 9.345856 6.706749 19.056008 4.78191 23.264866-1.955538C457.700303 196.665517 454.682573 186.318868 446.893166 180.393925zM757.624187 357.149605c10.155291 0 18.788925 7.251148 20.239973 16.711614 0.184195 0.708128 0.274246 1.323135 0.274246 2.118244 15.392572 133.60695-113.416096 110.609167-113.416096 110.609167-11.4334 0-20.605294-8.92937-20.605294-20.067035 0-10.963703 9.171893-19.893072 20.605294-19.893072 92.52223 19.708877 72.105225-69.590961 72.105225-69.590961C736.827535 365.991993 746.152924 357.149605 757.624187 357.149605zM742.607168 590.343691c-44.533262 10.064216-90.338495 1.39272-103.170754-0.982374-0.99363-0.086981-1.920746-0.99363-2.833535-1.170662-0.448208-0.086981-0.722454-0.528026-0.722454-0.528026-12.644995-3.455705-21.900799-14.756075-21.900799-28.113291 0-15.923668 13.367449-29.012777 30.04427-29.012777 0 0 16.21838 2.093684 27.210735 6.248308 10.894118 4.240581 103.143125 3.1569 148.957567-71.111594 25.001417-54.202483 10.992355-90.473571 9.241478-96.3013 0 0-5.945409-14.089903-5.945409-27.950586 0-16.006556 13.377682-26.067702 29.939893-26.067702 13.846356 0 25.481348 1.826602 28.877701 24.432459l0.180102 0C931.677315 498.036355 822.297139 572.39183 742.607168 590.343691z"  horiz-adv-x="1024" />

    
    <glyph glyph-name="pinglun" unicode="&#58928;" d="M512 830.464C230.4 830.464 1.024 638.976 1.024 403.456c0-99.328 39.936-190.464 108.544-263.168l0 0c0 0-5.12-180.224-43.008-203.776 0 0 138.24 0 226.304 79.872 66.56-26.624 140.288-40.96 219.136-40.96 281.6 0 510.976 191.488 510.976 427.008C1022.976 638.976 793.6 830.464 512 830.464zM512 17.408c-71.68 0-140.288 13.312-203.776 37.888-5.12 2.048-10.24 3.072-15.36 3.072-10.24 0-19.456-4.096-27.648-10.24-38.912-35.84-91.136-53.248-132.096-61.44 4.096 16.384 7.168 34.816 9.216 56.32 5.12 40.96 7.168 78.848 7.168 92.16 2.048 12.288-2.048 24.576-10.24 33.792-63.488 67.584-97.28 149.504-97.28 234.496 0 212.992 210.944 386.048 470.016 386.048s470.016-173.056 470.016-386.048C982.016 190.464 771.072 17.408 512 17.408zM321.536 384m-55.296 0a5.4 5.4 0 1 0 110.592 0 5.4 5.4 0 1 0-110.592 0ZM527.36 384m-55.296 0a5.4 5.4 0 1 0 110.592 0 5.4 5.4 0 1 0-110.592 0ZM733.184 384m-55.296 0a5.4 5.4 0 1 0 110.592 0 5.4 5.4 0 1 0-110.592 0Z"  horiz-adv-x="1024" />

    
    <glyph glyph-name="mianfeiruzhu" unicode="&#58898;" d="M512.002047 753.473025c-250.450099 0-453.465862-203.02395-453.465862-453.481212 0-250.442936 203.015763-453.465862 453.465862-453.465862 250.456239 0 453.461769 203.022926 453.461769 453.465862C965.462792 550.450099 762.457262 753.473025 512.002047 753.473025M512.002047-107.821289c-225.226624 0-407.815149 182.587502-407.815149 407.814126 0 225.241974 182.588525 407.829476 407.815149 407.829476 225.223554 0 407.809009-182.587502 407.809009-407.829476C919.811056 74.767236 737.225601-107.821289 512.002047-107.821289M263.717264 411.915929l0 30.490431c72.586179 23.208585 121.963773 59.518558 148.09799 108.896152l60.981886 0c-10.174734-20.35049-18.887163-34.846646-26.13524-43.558052l206.901257 0 0-34.846646c-23.242354-26.13524-45.735647-47.199998-67.515696-63.159482l121.963773 0 0-108.896152c1.428535-46.485731-21.064758-68.979024-67.515696-67.515696L520.710382 233.326485c-1.463328-2.925632-2.925632-7.281847-4.355191-13.06762-2.926656-5.819542-5.104251-10.174734-6.53381-13.06762l50.090838 0 0-76.227102c-1.463328-23.242354 8.712429-34.097586 30.491455-32.66905l91.472318 0c21.779026-1.428535 31.91999 7.249101 30.491455 26.13524l0 21.779026 43.558052 0 0-28.312836c1.428535-39.20286-19.60143-58.055231-63.160505-56.625672L572.981886 61.27085c-46.485731-1.429559-68.979024 18.886139-67.515696 60.981886l0 78.404698c-31.954783-62.445214-111.822808-113.966635-239.570307-154.6318l0 34.846646c107.431801 42.095747 172.055634 92.901877 193.83466 152.453181L311.63153 233.325461 311.63153 409.738333l204.724685 0c24.670889 17.422811 46.450938 38.4538 65.337077 63.159482L413.992849 472.897815C383.502417 443.835919 333.410556 423.520221 263.717264 411.915929zM366.079606 270.350726l106.717534 0c5.78475 23.208585 8.711406 50.092885 8.711406 80.583317l0 19.60143-115.428939 0L366.079606 270.350726zM655.742798 370.535473 538.13524 370.535473l0-17.422811c0-29.061896-2.178619-56.625672-6.534833-82.760912L620.895129 270.35175c24.671912-1.463328 36.276205 10.140964 34.847669 34.847669L655.742798 370.535473z"  horiz-adv-x="1024" />

    
    <glyph glyph-name="dianhua" unicode="&#58931;" d="M849.437266 92.957527l-147.253762 86.764086c-7.65126 3.9121-18.877953 2.128477-24.954345-3.947915l-43.327808-43.322691c-6.064113-6.068206-18.063401-11.118222-26.65201-11.217483 0 0-55.362912-0.63752-158.303422 102.3122-102.944604 102.939487-102.453417 158.480454-102.453417 158.480454 0.081864 8.588609 5.112438 20.587897 11.180644 26.647917l36.932144 36.927027c6.076392 6.086625 8.114818 17.430998 4.530177 25.245987l-81.229023 152.776546c-3.583618 7.80578-11.490705 9.225105-17.557888 3.166109l-100.734262-100.492762c-6.077416-6.049786-11.980869-17.98563-13.122879-26.500561 0 0-19.651572-146.836253 186.101535-352.58936 205.757201-205.752084 352.588337-186.101535 352.588337-186.101535 8.510838 1.146103 20.446681 7.04137 26.510794 13.109576l100.615559 100.611465C858.371752 80.89377 857.084433 89.062823 849.437266 92.957527z"  horiz-adv-x="1024" />

    
    <glyph glyph-name="yikeappshouyetubiao35" unicode="&#58896;" d="M412.910933 497.085867c-145.851733 0-264.0896-108.305067-264.0896-241.902933 0-61.781333 25.429333-118.0672 67.072-160.802133 4.061867-4.164267 5.8368-9.898667 4.539733-15.496533L202.069333 0.309333c-3.310933-14.2336 11.912533-25.8048 25.361067-19.285333l90.146133 43.6224c4.027733 1.9456 8.635733 2.2528 12.936533 0.955733 25.941333-7.850667 53.589333-12.288 82.397867-12.288 145.851733 0 264.0896 108.305067 264.0896 241.902933S558.762667 497.085867 412.910933 497.085867zM281.838933 300.750933c23.210667 0 41.984-17.237333 41.984-38.468267 0-21.230933-18.807467-38.468267-41.984-38.468267s-41.984 17.237333-41.984 38.468267C239.854933 283.547733 258.6624 300.750933 281.838933 300.750933zM406.1184 223.8144c-23.210667 0-41.984 17.237333-41.984 38.468267 0 21.230933 18.807467 38.468267 41.984 38.468267s41.984-17.237333 41.984-38.468267C448.1024 241.051733 429.294933 223.8144 406.1184 223.8144zM527.701333 223.8144c-23.210667 0-41.984 17.237333-41.984 38.468267 0 21.230933 18.807467 38.468267 41.984 38.468267s41.984-17.237333 41.984-38.468267C569.685333 241.051733 550.877867 223.8144 527.701333 223.8144zM875.178667 333.962667c0 164.0448-151.04 297.028267-337.373867 297.028267-124.0064 0-232.072533-59.0848-290.7136-146.8416 47.5136 28.945067 104.516267 45.8752 165.853867 45.8752 165.717333 0 300.032-123.050667 300.032-274.8416 0-85.7088-42.871467-162.2016-109.9776-212.616533 5.4272 0.9216 10.683733 2.2528 16.008533 3.413333l-0.546133-0.4096 142.6432-74.478933c12.6976-6.621867 27.818667 3.310933 26.180267 17.2032l-14.609067 123.323733c-0.648533 5.4272 1.501867 10.717867 5.632 14.404267C838.109867 179.611733 875.178667 252.896 875.178667 333.962667z"  horiz-adv-x="1024" />

    
    <glyph glyph-name="xiangji" unicode="&#58913;" d="M877.269333 599.136l-101.504 0c-2.538667 5.845333-13.162667 30.272-18.218667 40.810667-14.997333 31.317333-24.170667 44.032-54.912 44.032l-378.517333 0c-30.122667 0-43.242667-12.245333-61.034667-57.045333-4.096-10.304-10.197333-23.722667-12.053333-27.818667l-104.298667 0c-57.365333 0-104.064-46.634667-104.064-103.957333l0-475.242667c0-57.322667 46.677333-103.936 104.064-103.936l730.538667 0c57.365333 0 104.064 46.634667 104.064 103.936l0 475.242667C981.333333 552.522667 934.656 599.136 877.269333 599.136zM80.896 495.178667c0 36.245333 29.525333 65.792 65.834667 65.792l112.085333 0c13.888 0 18.581333 6.208 21.568 12.928 5.376 12.117333 9.088 20.992 12.650667 29.568 1.962667 4.736 3.925333 9.365333 6.101333 14.506667 0.426667 0.981333 0.874667 2.133333 1.365333 3.413333 3.584 9.152 9.578667 24.448 23.616 24.448l377.258667 0c12.309333 0 16.213333-9.045333 19.669333-17.002667l0.661333-1.536c2.325333-5.248 5.824-13.162667 9.450667-21.290667 6.037333-13.589333 12.288-27.605333 14.144-32.085333 3.221333-7.722667 10.624-12.928 18.410667-12.928l113.536 0c36.309333 0 65.834667-29.546667 65.834667-65.792l0-475.242667c0-36.245333-29.525333-65.770667-65.834667-65.770667l-730.538667 0c-36.309333 0-65.834667 29.525333-65.834667 65.770667L80.874667 495.178667zM512 44c117.632 0 213.333333 95.701333 213.333333 213.333333s-95.701333 213.333333-213.333333 213.333333-213.333333-95.701333-213.333333-213.333333S394.368 44 512 44zM512 433.674667c97.216 0 176.298667-79.104 176.298667-176.341333 0-97.216-79.104-176.32-176.298667-176.32s-176.298667 79.104-176.298667 176.32C335.701333 354.570667 414.784 433.674667 512 433.674667zM787.114667 432.522667l47.701333 0c10.538667 0 19.114667 8.533333 19.114667 19.093333 0 10.496-8.576 19.072-19.114667 19.072l-47.701333 0c-10.538667 0-19.114667-8.554667-19.114667-19.072C768 441.056 776.576 432.522667 787.114667 432.522667z"  horiz-adv-x="1024" />

    
    <glyph glyph-name="wechat" unicode="&#59063;" d="M670.633 528.164c10.285 0 20.459-0.754 30.553-1.878C673.73 654.118 537.066 749.094 381.068 749.094c-174.402 0-317.264-118.878-317.264-269.831 0-87.133 47.529-158.688 126.955-214.184l-31.732-95.441 110.911 55.619c39.686-7.857 71.526-15.936 111.13-15.936 9.957 0 19.829 0.494 29.621 1.264-6.198 21.213-9.792 43.428-9.792 66.48C400.897 415.676 519.926 528.164 670.633 528.164zM500.042 614.186c23.89 0 39.712-15.715 39.712-39.59 0-23.778-15.822-39.712-39.712-39.712-23.777 0-47.638 15.934-47.638 39.712C452.404 598.471 476.265 614.186 500.042 614.186zM278.001 534.884c-23.778 0-47.776 15.934-47.776 39.712 0 23.875 23.998 39.59 47.776 39.59 23.778 0 39.603-15.715 39.603-39.59C317.604 550.818 301.779 534.884 278.001 534.884zM960.195 280.877c0 126.846-126.926 230.242-269.488 230.242-150.953 0-269.843-103.396-269.843-230.242 0-127.064 118.89-230.242 269.843-230.242 31.596 0 63.465 7.969 95.197 15.922l87.021-47.65-23.859 79.287C912.748 145.969 960.195 209.322 960.195 280.877zM603.219 320.576c-15.797 0-31.732 15.716-31.732 31.746 0 15.811 15.936 31.732 31.732 31.732 23.998 0 39.713-15.922 39.713-31.732C642.932 336.292 627.217 320.576 603.219 320.576zM777.732 320.576c-15.689 0-31.514 15.716-31.514 31.746 0 15.811 15.824 31.732 31.514 31.732 23.777 0 39.711-15.922 39.711-31.732C817.443 336.292 801.51 320.576 777.732 320.576z"  horiz-adv-x="1024" />

    
    <glyph glyph-name="jiahao1" unicode="&#59045;" d="M1012.565 387.677 599.856 387.677 599.856 800.385 424.82 800.385 424.82 387.677 12.113 387.677 12.113 212.64 424.82 212.64 424.82-200.068 599.856-200.068 599.856 212.64 1012.565 212.64Z"  horiz-adv-x="1024" />

    
    <glyph glyph-name="play-chess" unicode="&#58932;" d="M502.869 869.478c-272.555 0-493.517-220.945-493.517-493.517 0-272.555 220.945-493.517 493.517-493.517 272.555 0 493.517 220.945 493.517 493.517-0.017 272.555-220.962 493.517-493.517 493.517zM502.869-86.255c-255.283 0-462.217 206.95-462.217 462.217s206.933 462.217 462.217 462.217 462.217-206.95 462.217-462.217-206.95-462.217-462.217-462.217zM548.966 627.746l-0.034-0.017 0.051-0.085zM622.114 220.501c0 0-9.967 157.559-39.612 292.847 15.241 3.038 26.778 7.253 31.437 12.919 22.75 27.733 19.371 100.983 3.908 117.163-8.602 8.994-32.358 12.271-43.025-1.246-8.124-10.291-11.981-28.877-11.981-28.877l-7.919 0.444-5.871 13.414c0 0 0-0.017 0-0.017-0.017 0.034-0.034 0.068-0.051 0.102-1.775 3.669-11.452 25.054-13.295 28.45h-68.267c-2.065-3.004-15.087-31.488-18.193-37.666l1.434 4.096c-0.546-1.417-1.024-2.901-1.553-4.335-0.119-0.222-0.324-0.666-0.41-0.819 0 0-3.942 0.034-8.243-0.205-1.809-0.102-18.722 35.26-48.794 26.47-23.108-6.758-25.395-99.209-3.908-119.108 4.676-4.335 16.521-11.571 33.092-14.37-25.737-130.406-36.659-289.28-36.659-289.28s-62.942-13.875-62.942-54.409 65.075-74.667 181.862-69.342c110.404-0.546 174.404 20.275 180.804 61.867s-61.815 61.901-61.815 61.901zM502.374 113.835c-73.318-4.267-145.852 27.733-145.852 53.231 0 24.422 51.2 34.236 51.2 34.236s9.37 175.684 31.351 306.842h-0.017l0.154 0.853c0.102 0.631 0.205 1.28 0.324 1.911 0 0 0.017 0 0.017 0l1.946 11.059c-0.017 0-0.017 0-0.034 0 0.358 2.014 0.717 4.011 1.092 6.007 0.034 0.188 0.085 0.375 0.119 0.563l-17.408 2.56c-11.247 1.929-19.524 4.13-23.945 11.179-8.892 14.217-13.022 78.524 1.775 81.425 18.125 3.55 30.942-27.733 30.942-27.733l7.663 0.495 0.085-0.068c-0.239-0.751 0.239 0.768 0 0l17.732 0.017c4.983 16.316 13.5 38.69 15.804 40.465 2.287 1.775 50.807 1.195 52.924-0.119 2.116-1.314 10.411-24.951 14.95-40.294 0 0 23.91 0.478 26.402 0.7 11.145 0.973 0.631 36.42 30.498 36.13 13.107-0.119 18.176-76.203-1.911-95.761-3.447-3.362-18.142-5.513-18.176-5.393l-19.763-3.26c0.119-0.546 0.819-3.755 0.939-4.335-0.017 0-0.034 0-0.051 0l2.85-14.063c0 0 0.017 0 0.017 0 0.102-0.529 0.205-1.058 0.307-1.587l0.154-0.751h-0.017c26.044-134.997 35.277-303.275 35.277-303.275s45.995-12.971 48.725-33.519c4.608-34.748-56.883-58.027-146.074-57.515z"  horiz-adv-x="1024" />

    
    <glyph glyph-name="a" unicode="&#58971;" d="M512 896C229.2224 896 0 666.7776 0 384s229.2224-512 512-512 512 229.2224 512 512S794.7776 896 512 896zM512-93.866667C248.081067-93.866667 34.133333 120.081067 34.133333 384 34.133333 647.918933 248.081067 861.866667 512 861.866667s477.866667-213.947733 477.866667-477.866667C989.866667 120.081067 775.918933-93.866667 512-93.866667zM375.466667 230.4l273.066667 0 0 34.133333L375.466667 264.533333 375.466667 230.4zM443.733333 384c47.121067 0 85.333333 38.212267 85.333333 85.333333 0 47.121067-38.212267 85.333333-85.333333 85.333333-47.121067 0-85.333333-38.212267-85.333333-85.333333C358.4 422.212267 396.612267 384 443.733333 384zM614.4 622.933333 290.133333 622.933333l0-477.866667 443.733333 0L733.866667 503.466667l-119.466667 0L614.4 622.933333zM699.733333 469.333333l0-290.133333L324.266667 179.2 324.266667 588.8l256 0 0-119.466667L699.733333 469.333333zM375.466667 298.666667l273.066667 0 0 34.133333L375.466667 332.8 375.466667 298.666667z"  horiz-adv-x="1024" />

    
    <glyph glyph-name="erweima" unicode="&#58959;" d="M383.35148 768.003837 127.949602 768.003837l0-255.379365 255.401878 0L383.35148 768.003837zM351.92984 544.01746 159.386592 544.01746 159.386592 736.567871l192.542224 0L351.928816 544.01746zM191.786513 192.478012l127.630842 0 0-127.645169-127.630842 0 0 127.645169ZM159.730423 384.481977l63.781652 0 0-63.808258-63.781652 0 0 63.808258ZM479.119637 768.347668l63.793932 0 0-63.780629-63.793932 0 0 63.780629ZM894.619816 768.003837 639.221008 768.003837l0-255.379365 255.398808 0L894.619816 768.003837zM863.213525 544.01746 670.656975 544.01746 670.656975 736.567871 863.213525 736.567871 863.213525 544.01746zM191.786513 704.236512l127.630842 0 0-127.638005-127.630842 0 0 127.638005ZM703.111131 704.236512l127.647215 0 0-127.638005-127.647215 0 0 127.638005ZM415.419849 576.625112 479.546356 576.625112 479.546356 512.789225 543.354614 512.789225 543.354614 576.625112 607.48112 576.625112 607.48112 640.413927 479.188198 640.413927 479.188198 704.236512 415.378917 704.236512 415.378917 632.978585 415.419849 632.978585ZM703.565479 257.057843 703.524546 257.057843 703.524546 320.701348 670.890288 320.701348 670.890288 384.481977 670.890288 384.703011 767.51086 384.703011 767.51086 320.590831 831.309908 320.590831 831.309908 384.703011 831.416332 384.703011 831.416332 448.512293 670.890288 448.512293 607.494423 448.512293 607.108636 448.512293 607.108636 384.481977 542.914592 384.481977 542.914592 448.512293 479.119637 448.512293 479.119637 384.481977 415.792333 384.481977 415.792333 425.653679 415.378917 425.653679 415.378917 448.512293 223.732086 448.512293 223.732086 384.703011 352.012727 384.703011 352.012727 384.481977 352.012727 356.695121 352.012727 320.701348 479.436862 320.701348 479.436862 256.89309 479.546356 256.89309 479.546356 193.027527 543.340287 193.027527 543.340287 256.89309 638.998951 256.89309 638.998951 192.559876 575.577502 192.559876 575.577502 64.776561 639.38576 64.776561 639.38576 128.667707 703.565479 128.667707 703.565479 193.027527 767.332804 193.027527 767.332804 256.835785 703.565479 256.835785ZM831.309908 128.17345l63.792908 0 0-127.783315-63.792908 0 0 127.783315ZM767.51086 192.478012l63.799048 0 0-63.781652-63.799048 0 0 63.781652ZM831.309908 320.507944l63.792908 0 0-127.809921-63.792908 0 0 127.809921ZM127.977231 0.968303l255.387551 0L383.364783 256.341528 127.977231 256.341528 127.977231 0.968303zM159.386592 224.918865l192.542224 0 0-192.554504L159.386592 32.364361 159.386592 224.918865zM479.546356 64.281281l63.809281 0 0-63.809281-63.809281 0 0 63.809281ZM542.914592 512.292921l63.794955 0 0-63.780629-63.794955 0 0 63.780629ZM415.405523 192.559876l63.810305 0 0-127.783315-63.810305 0 0 127.783315ZM703.524546 64.281281 638.998951 64.281281 638.998951 0.472 703.524546 0.472 703.524546 0.362506 767.332804 0.362506 767.332804 128.17345 703.524546 128.17345Z"  horiz-adv-x="1024" />

    
    <glyph glyph-name="cha" unicode="&#58997;" d="M217.329722 134.920675l543.742733 543.742733 45.583357-45.583357-543.742733-543.742733-45.583357 45.583357ZM761.079325 89.330132l-543.742733 543.742733 45.583357 45.583357 543.742733-543.742733-45.583357-45.583357Z"  horiz-adv-x="1024" />

    
    <glyph glyph-name="fabuxuqiu" unicode="&#58923;" d="M1023.760174 871.977887c0 0-225.558176 87.646176-485.098303-71.891354l-50.067302-233.955426-61.308321 134.177955c-74.236771-117.499088-84.705194-321.971016-86.10303-369.966123-62.516846-72.087828-104.165408-94.918813-104.165408-94.918813s34.219359-11.95631 88.893586-4.092201c50.930973 7.326872 103.811344 72.839959 103.811344 72.839959s0.335644 0.887206 0.50449 1.314948c83.86199-8.441253 206.163453-8.099469 287.164279 49.768497l-164.111708 32.513508 245.524926 59.879786c29.91431 48.063669 57.824987 89.307002 90.691535 146.966213l-101.730962 25.137517 157.763117 98.198509C994.053596 805.090501 1023.760174 871.977887 1023.760174 871.977887L1023.760174 871.977887zM802.487605 326.302927c-0.048095-1.25662-0.212848-2.469238-0.491187-3.640923-0.400113-1.157359-0.788969-2.300392-1.188058-3.443425-57.951877-166.238139-219.045855-282.661731-404.161946-275.815813C169.354757 51.808202-8.09984 242.883005 0.307643 470.185918 8.714104 697.479621 199.79914 874.931149 427.08875 866.525712c4.057409-0.152473 8.091282-0.36532 12.123109-0.635473 0.853437 0.089028 1.730411 0.121773 2.616594 0.089028 1.349741-0.052189 2.664689-0.236384 3.919263-0.565888 8.608052-2.128477 14.830777-10.060123 14.491039-19.259646-0.328481-8.92016-6.720052-16.188704-15.069207-17.997909-1.524726-0.323365-3.121084-0.472767-4.756327-0.414439-2.128477 0.078795-4.157693 0.497327-6.0416 1.219781-2.876514 0.168846-5.765307 0.313132-8.656147 0.419556C218.92064 837.030957 45.083429 675.606451 37.435239 468.812641c-7.648191-206.791763 153.787572-380.629997 360.582405-388.280234 167.844729-6.206352 313.986157 98.980315 367.164311 249.406327 0.717338 2.044566 1.422396 4.082992 2.100848 6.14086 3.312442 6.000668 9.80532 9.962909 17.124006 9.692756C794.77904 345.389634 802.871345 336.672088 802.487605 326.302927zM769.568868 343.39214c0.246617 2.212388 0.898463 4.307096 1.870604 6.215562C770.836745 347.52732 770.209458 345.460242 769.568868 343.39214zM806.623809 337.485617c-0.233314-1.210571-0.590448-2.381234-1.058099-3.487428C805.921821 335.154525 806.266675 336.311885 806.623809 337.485617z"  horiz-adv-x="1024" />

    
    <glyph glyph-name="shouye" unicode="&#58894;" d="M567.68 87.68 567.68 263.808 456.96 263.808l0-176.64c-3.456-0.128-6.272-0.384-8.96-0.384-52.352 0-104.576 0-156.928 0-17.92 0-30.08 11.52-30.08 30.592-0.384 72.448-0.256 145.024 0.128 217.472 0 3.84 2.944 8.704 5.888 11.264 47.36 41.856 94.848 83.328 142.464 124.928 31.616 27.648 63.232 55.424 94.848 83.072 2.432 2.176 4.992 4.224 8.064 6.784 18.816-16.512 37.632-32.896 56.448-49.28 61.824-54.144 123.648-108.416 185.728-162.304 6.656-5.76 9.472-11.648 9.472-20.992-0.384-68.864-0.256-137.728-0.128-206.464 0-12.544-2.944-23.424-13.312-30.336-3.712-2.56-8.576-4.736-12.928-4.736-55.552-0.256-110.976-0.128-166.528-0.128C569.984 86.784 569.216 87.168 567.68 87.68L567.68 87.68 567.68 87.68zM651.008 575.488c0 29.056 0 55.936 0 82.688 0 17.152 3.84 21.248 19.968 21.248 24.96 0 50.048 0 75.008 0 12.928 0 17.408-4.864 17.408-19.328 0-57.344 0.256-114.816-0.128-172.288 0-8.832 2.304-14.592 8.832-20.224 27.392-23.424 54.272-47.488 81.28-71.424 13.312-11.776 13.568-17.408 2.432-31.36-6.784-8.448-13.312-17.152-20.224-25.6-8.32-10.496-15.232-11.136-25.344-2.176-95.872 84.992-191.872 170.112-287.744 255.104-3.328 2.944-6.784 5.76-10.624 9.216-21.632-19.072-43.008-38.016-64.384-56.96C369.792 475.392 291.84 406.4 214.016 337.408c-10.496-9.344-17.152-8.832-25.984 2.176-7.296 9.216-14.592 18.432-21.888 27.648-8.448 10.752-8.064 17.792 2.048 26.88 43.392 38.656 87.04 77.056 130.56 115.584 57.984 51.328 116.096 102.656 174.08 154.112 26.368 23.296 51.968 23.296 78.336-0.128 31.232-27.776 62.464-55.424 93.696-83.072C646.4 579.2 647.936 578.048 651.008 575.488L651.008 575.488 651.008 575.488zM651.008 575.488"  horiz-adv-x="1024" />

    
    <glyph glyph-name="wode" unicode="&#58895;" d="M669.192298-117.712041c-308.237541 0-445.081113 64.460922-445.081113 88.954838 0 168.250997 93.891343 322.409204 236.321278 400.145023 2.920066 1.594634 5.54521 2.986937 8.017749 4.266074 57.567989-40.757464 127.749017-71.587048 203.408382-71.587048 75.479326 0 145.497461 30.723275 203.000293 71.305844 6.503705-3.443037 13.274896-7.400472 21.748745-12.606179 131.835051-80.983384 217.667493-229.951316 217.667493-391.525428C1114.275126-53.251119 977.409263-117.712041 669.192298-117.712041L669.192298-117.712041zM171.940945-128M676.419589 896c-157.260027 0-285.195942-128.378297-285.195942-286.180156 0-157.795001 127.935915-286.161295 285.195942-286.161295 157.253169 0 285.182224 128.36458 285.182224 286.161295C961.603528 767.621703 833.672758 896 676.419589 896zM487.002832 522.915739c-3.984869-4.219778-9.746127-6.443692-15.519386-6.443692-5.973875 0-11.513941 2.223914-15.733719 6.443692-4.199202 4.224922-6.429974 10.011899-6.429974 15.792017 0 5.786977 2.230772 11.561951 6.429974 15.793732 8.204647 8.225223 23.046743 8.225223 31.253105 0 4.219778-4.23178 6.644307-10.006755 6.644307-15.793732C493.647138 532.706447 491.222609 527.140661 487.002832 522.915739zM662.568567 801.379926c-97.433831 0-176.690552-79.544785-176.690552-177.299257 0-12.278679-9.939883-22.237423-22.163693-22.237423-12.251245 0-22.163693 9.958744-22.163693 22.237423 0 122.28954 99.141632 221.772389 221.016224 221.772389 12.22381 0 22.163693-9.958744 22.163693-22.235709C684.73226 811.33867 674.792377 801.379926 662.568567 801.379926z"  horiz-adv-x="1115" />

    
    <glyph glyph-name="tupian01" unicode="&#58914;" d="M738.266815 49.321568 151.947156 49.321568c-36.747949 0-66.642816 29.893844-66.642816 66.642816L85.30434 544.541393c0 36.748972 29.893844 66.642816 66.642816 66.642816l586.319659 0c36.730553 0 66.607-29.893844 66.607-66.642816l0-428.577009C804.873816 79.215412 774.997368 49.321568 738.266815 49.321568zM151.947156 575.096293c-16.845667 0-30.553876-13.70821-30.553876-30.5549l0-428.577009c0-16.844643 13.70821-30.552853 30.553876-30.552853l586.319659 0c16.827247 0 30.518061 13.70821 30.518061 30.552853L768.784876 544.541393c0 16.845667-13.690814 30.5549-30.518061 30.5549L151.947156 575.096293zM868.475366 154.484699l-68.500117 0 0 36.087916 68.500117 0c17.534352 0 31.798217 14.246469 31.798217 31.752168L900.273583 648.505209c0 17.505699-14.263865 31.752168-31.798217 31.752168L271.452947 680.257377c-17.524119 0-31.787984-14.246469-31.787984-31.752168l0-42.219567-36.087916 0 0 42.219567c0 37.409005 30.448476 67.840084 67.8759 67.840084l597.022419 0c37.436634 0 67.886133-30.43108 67.886133-67.840084l0-426.181449C936.361499 184.915779 905.912 154.484699 868.475366 154.484699zM767.895623 86.124775 600.963683 229.232101 467.732286 149.295514 286.474059 356.437248 116.10688 186.025043 90.591763 211.542206 288.218796 409.230638 475.027435 195.760778 604.699774 273.565818 791.384593 113.523799ZM615.977631 338.48334c-46.176692 0-83.7351 37.57478-83.7351 83.768869 0 46.201252 37.558407 83.787288 83.7351 83.787288 46.175669 0 83.734076-37.586037 83.734076-83.787288C699.711707 376.059144 662.1533 338.48334 615.977631 338.48334zM615.977631 469.952604c-26.273387 0-47.648207-21.400403-47.648207-47.699372 0-26.28976 21.37482-47.682999 47.648207-47.682999 26.272363 0 47.64616 21.392216 47.64616 47.682999C663.623791 448.551178 642.249995 469.952604 615.977631 469.952604z"  horiz-adv-x="1024" />

    
    <glyph glyph-name="bianji1" unicode="&#58966;" d="M902.255727-34.132122 65.992505-34.132122 65.992505 718.505493l501.758752 0 0-55.749722L121.742227 662.755772l0-641.136126 724.762755 0L846.504982 411.878954l55.749722 0L902.254703-34.132122 902.255727-34.132122zM902.255727-34.132122M543.222607 229.654726l-52.547797 105.116059-105.174388 52.547797L708.54898 710.338487l39.417755-39.416731L479.636407 402.624173l52.627614-26.288736 26.231431-52.547797 268.298606 268.304745 39.417755-39.416731L543.222607 229.654726 543.222607 229.654726zM543.222607 229.654726M905.628544 592.092385 747.966735 749.755218l19.680225 19.705807c21.045315 21.077038 49.089022 32.671097 78.82937 32.671097 29.798676 0 57.787124-11.594059 78.859046-32.671097 21.045315-20.990057 32.644491-48.947805 32.671097-78.718853 0.029676-29.828352-11.5695-57.866942-32.671097-78.94398L905.628544 592.092385 905.628544 592.092385zM832.010873 744.51589l68.323085-68.298526c1.336438 4.627391 1.922792 9.507538 1.922792 14.470573 0 14.881942-5.79703 28.851095-16.308431 39.331797C871.873766 744.093265 850.686211 749.504508 832.010873 744.51589L832.010873 744.51589 832.010873 744.51589zM832.010873 744.51589M266.470469 110.625796l76.770478 230.252081 52.879348-17.646915-41.506323-124.521015L479.105311 240.190687l17.647939-52.850695L266.470469 110.625796 266.470469 110.625796zM266.470469 110.625796"  horiz-adv-x="1024" />

    
    <glyph glyph-name="xiewenzhang" unicode="&#58883;" d="M641.024 664.576c-6.656 0-12.032 2.24-16.576 6.72C620.032 675.776 616.256 680.96 613.312 686.912 610.304 692.864 608.064 698.944 606.592 705.216 605.056 711.488 604.288 716.672 604.288 720.832L604.288 830.656l1.792 0c5.376 0 10.432-0.576 15.232-1.792C626.048 827.648 631.872 824.832 638.72 820.352c6.784-4.48 15.168-10.688 24.96-18.752 9.856-8 22.272-18.56 37.12-31.616 16.064-14.336 28.8-26.368 38.336-36.16 9.536-9.792 16.896-18.24 21.888-25.024 5.12-6.784 8.192-12.608 9.344-17.408 1.28-4.736 1.792-8.896 1.792-12.48l0-14.272L641.024 664.64 641.024 664.576zM918.656 244.096c1.728-4.736 2.944-10.752 3.584-17.856 0.576-7.104-2.368-14.016-8.96-20.608-2.944-2.88-5.632-5.76-8.064-8.384-2.304-2.752-4.416-4.864-6.272-6.72-2.304-2.368-4.416-4.096-6.272-5.376l-75.904 75.008c3.648 3.008 7.616 6.656 12.032 10.752 4.48 4.096 8.192 7.36 11.2 9.856 7.04 6.528 14.848 9.344 23.168 8.384 8.384-0.896 15.168-2.752 20.544-5.76 5.952-3.008 12.288-8.128 19.2-15.616C909.824 260.352 915.072 252.48 918.656 244.096L918.656 244.096zM603.52 161.152c13.056 0 24.064 3.52 32.96 10.624l-173.184-180.352-246.4 0c-11.328 0-23.616 3.392-37.056 9.856-13.312 6.528-25.856 15.232-37.44 25.856-11.584 10.752-21.248 23.104-29.056 36.992-7.68 14.016-11.584 28.48-11.584 43.392l0 608c0 12.544 2.816 25.6 8.512 39.296C115.904 768.448 123.584 780.8 133.376 791.808c9.792 11.008 20.992 20.224 33.472 27.712 12.48 7.424 25.6 11.136 39.296 11.136l341.952 0 0-111.68c0-11.2 1.728-23.488 5.312-36.544C557.056 669.312 562.56 657.28 569.92 646.272 577.408 635.264 587.072 626.048 599.04 618.624c11.84-7.488 26.112-11.2 42.752-11.2l130.368 0 0-295.424-122.24-126.848c6.528 9.6 9.728 20.032 9.728 31.232 0 15.488-5.504 28.736-16.512 39.744S618.944 272.64 603.52 272.64L268.672 272.64c-15.488 0-28.544-5.504-39.296-16.512s-16.064-24.256-16.064-39.744 5.312-28.48 16.064-39.232 23.808-16 39.296-16L603.52 161.152 603.52 161.152zM268.672 495.872c-15.488 0-28.544-5.504-39.296-16.512C218.688 468.288 213.312 455.104 213.312 439.616c0-15.424 5.312-28.544 16.064-39.296 10.688-10.688 23.808-16 39.296-16L603.52 384.32c15.424 0 28.672 5.312 39.68 16 11.008 10.688 16.512 23.872 16.512 39.296 0 15.488-5.504 28.736-16.512 39.744C632.192 490.368 618.944 495.872 603.52 495.872L268.672 495.872 268.672 495.872zM605.312 48.512l11.52 11.648 22.336 22.4c8.96 8.896 18.816 18.88 29.504 29.888s21.44 21.888 32.192 32.64c25.536 25.6 54.464 54.144 86.592 85.76l75.008-75.008-86.656-86.656-32.128-32.128-29.504-29.504c-8.32-8.384-15.232-15.36-20.928-21.504-5.632-5.888-8.768-9.152-9.344-9.728-3.008-2.368-6.272-4.864-9.792-7.616-3.648-2.624-7.104-4.864-10.752-6.656-3.584-1.856-9.088-4.032-16.512-6.72C639.296-47.36 631.68-49.984 624-52.224c-7.744-2.496-15.168-4.608-22.336-6.272-7.104-1.856-12.48-3.136-16.064-3.648-7.104-1.152-11.904-0.256-14.336 2.624-2.368 3.008-2.944 8.128-1.792 15.232 0.576 3.52 1.792 8.896 3.584 16 1.792 7.232 3.904 14.528 6.272 21.888 2.368 7.488 4.608 14.528 6.656 20.992 2.176 6.656 3.84 11.008 4.928 13.504C594.56 35.776 599.296 42.624 605.312 48.512L605.312 48.512zM605.312 48.512"  horiz-adv-x="1024" />

    
    <glyph glyph-name="youkewuxianshangwangdegonggongquyu" unicode="&#58954;" d="M471.265736-16C471.265736 45.855893 519.961744 96 580.03132 96 640.100892 96 688.7969 45.855893 688.7969-16 688.7969-77.855893 640.100892-128 580.03132-128 519.961744-128 471.265736-77.855893 471.265736-16L471.265736-16ZM851.696668 269.664C781.620559 340.288 685.844694 384 580.031316 384 478.506417 384 386.459653 343.456 317.315821 277.792 315.420193 276.288 313.61779 274.72 312.001843 272.96 311.131718 272.096 310.137293 271.328 309.267167 270.464L309.640076 269.984C303.114142 261.664 299.074276 251.264 299.074276 239.776 299.074276 212.992 320.143728 191.296 346.15424 191.296 352.773399 191.296 359.050729 192.736 364.768689 195.264L366.291409 193.216C368.963933 196.128 371.947217 198.688 374.712972 201.504 377.323348 203.552 379.654037 205.888 381.798274 208.448 434.254364 257.664 503.553578 288.032 580.093473 288.032 657.721023 288.032 727.921436 256.768 780.563977 206.304 783.982327 201.408 788.239723 197.152 793.180788 193.824 793.646927 193.312 794.175218 192.896 794.641352 192.384L794.983187 192.832C802.006337 188.576 810.054991 185.952 818.818388 185.952 844.797826 185.952 865.867273 207.648 865.867273 234.432 865.867273 248.128 860.304691 260.416 851.448064 269.216L851.696668 269.664 851.696668 269.664ZM1002.663298 473.888C997.629007 478.4 992.283955 482.528 987.156433 486.88 985.074353 489.216 982.588281 490.944 980.071135 492.864 870.652956 584.288 731.961302 640 580.031316 640 430.369876 640 293.511694 585.984 184.870416 496.896 179.805047 494.176 175.609803 490.368 171.880698 485.984 168.804186 483.968 166.007357 481.632 163.459133 478.944 161.781036 477.568 160.134015 476.192 158.486993 474.752L159.26389 473.696C153.577003 465.696 150.158656 455.936 150.158656 445.28 150.158656 418.496 171.228104 396.8 197.238616 396.8 203.049806 396.8 208.488085 398.016 213.615606 400L214.982944 398.144C217.313636 400.32 219.892934 402.208 222.2547 404.352 225.673047 406.56 228.780636 409.248 231.546388 412.288 326.017066 494.016 447.088701 544 580.031316 544 715.73969 544 839.142014 492 934.358514 407.328 942.997606 396.768 955.769795 389.92 970.220079 389.92 996.199512 389.92 1017.268964 411.616 1017.268964 438.4 1017.268964 452.288 1011.488847 464.704 1002.41469 473.568L1002.663298 473.888 1002.663298 473.888ZM1154.189293 676.864 1154.500054 677.312C1153.878537 677.856 1153.257021 678.304 1152.604425 678.816 1149.155002 683.136 1144.990836 686.784 1140.298375 689.664 1136.165283 694.08 1131.59713 697.984 1125.972396 700.352 975.440826 822.24 786.43732 896 580.031316 896 373.656394 896 184.621808 822.24 34.121317 700.352 26.818485 697.248 20.945143 691.968 16.06623 685.76 13.362629 683.488 10.534723 681.312 7.76897 679.104L9.447068 676.864C3.604803 668.8 0 658.88 0 648.064 0 621.28 21.069448 599.584 47.07996 599.584 53.04653 599.584 58.733415 600.832 64.016316 602.944L64.327075 602.496C64.668909 602.816 65.04182 603.072 65.383655 603.36 72.966171 606.688 79.398878 612.064 84.339943 618.72 220.14154 731.456 391.960087 800 580.031316 800 778.295436 800 959.063836 724.544 1098.035177 600.608L1099.744354 602.912C1104.996175 600.832 1110.651988 599.584 1116.587478 599.584 1142.566917 599.584 1163.636364 621.28 1163.636364 648.064 1163.605285 658.88 1160.031562 668.8 1154.189293 676.864L1154.189293 676.864Z"  horiz-adv-x="1164" />

    
    <glyph glyph-name="jiahao" unicode="&#58992;" d="M191.09 413.09c-15.923 0-29.09-12.861-29.09-29.09 0-16.229 13.167-29.09 29.09-29.09l641.82 0c15.923 0 29.09 12.861 29.09 29.09 0 16.229-13.167 29.09-29.09 29.09L191.09 413.09zM482.91 63.09c0-15.923 12.861-29.09 29.09-29.09 16.229 0 29.09 13.167 29.09 29.09L541.09 704.91c0 15.923-12.861 29.09-29.09 29.09-16.229 0-29.09-13.167-29.09-29.09L482.91 63.09z"  horiz-adv-x="1024" />

    
    <glyph glyph-name="gouxuan" unicode="&#58902;" d="M983.552 662.7328 918.4256 727.9616 360.3456 169.8816 106.3936 423.8336 41.1648 358.7072 359.8336 40.0384 360.3456 40.5504 360.8576 40.0384Z"  horiz-adv-x="1024" />

    
    <glyph glyph-name="bianji2" unicode="&#58986;" d="M928.495 481.41c-12.608 0-22.833-10.204-22.91-22.791v-406.491c0-25.312-20.522-45.814-45.809-45.814h-687.323c-25.287 0-45.814 20.501-45.814 45.814v663.152c0 25.319 20.527 45.814 45.814 45.814h442.686c12.634 0.027 22.884 10.276 22.884 22.906 0 12.658-10.252 22.909-22.884 22.909h-447.269c-48.076 0-87.044-38.969-87.044-87.051v-672.313c0-48.079 38.969-87.044 87.044-87.044h696.487c48.080 0 87.051 38.965 87.051 87.044v411.074c-0.078 12.589-10.297 22.79-22.911 22.79v0 0zM502.628 187.876l435.834 435.793c25.925 25.906 23.541 70.516-5.338 99.35l-41.165 41.21c-28.854 28.88-73.443 31.294-99.369 5.389l-435.834-435.884 145.871-145.857zM825.057 737.070c9.846 9.826 26.755 8.931 37.715-2.003l41.184-41.183c10.934-11.006 11.855-27.893 2.010-37.695l-48.365-48.365-80.275 81.521 47.73 47.725zM823.383 573.605l-324.038-324.082-80.931 80.908 324.695 324.697 80.275-81.521zM356.544 332.913l-44.802-164.172c-1.957-7.174 0.092-14.779 5.287-20.070 5.268-5.191 12.892-7.225 20.051-5.292l164.178 44.778-33.607 33.665-106.598-29.132 29.071 106.665-33.581 33.559zM356.544 332.913z"  horiz-adv-x="1024" />

    
    <glyph glyph-name="wifi" unicode="&#58933;" d="M410.957211 183.214021c-2.802836-2.055822-4.479011-5.04183-4.6673-8.591679-0.187265-3.358491 0.934279-6.718005 3.359514-9.147334l93.160773-93.158726c2.241041-2.238994 5.228071-3.359514 8.212032-3.359514 3.177366 0 5.975085 1.307785 8.218172 3.359514l93.158726 93.158726c2.425236 2.429329 3.545756 5.788843 3.360538 9.147334-0.187265 3.363607-2.056845 6.53688-4.6673 8.405437C551.724235 226.710674 470.138078 226.710674 410.957211 183.214021L410.957211 183.214021zM510.834966 382.97567c-80.088036 0-157.75493-29.126364-218.616066-81.962733-7.2798-6.344498-8.026814-17.36039-1.678222-24.639167 6.345522-7.283894 17.361413-8.03193 24.64019-1.684362 54.517661 47.235814 123.968429 73.371054 195.654099 73.371054 71.692832 0 141.140531-26.13524 195.659215-73.371054 3.359514-2.796696 7.466042-4.291746 11.386328-4.291746 4.854565 0 9.708106 2.050706 13.253862 5.976108 6.348592 7.278777 5.602601 18.294668-1.678222 24.639167C668.595013 353.849306 591.11436 382.97567 510.834966 382.97567L510.834966 382.97567zM510.834966 382.97567M510.834966 541.103084c-122.280997 0-239.7105-45.552475-330.632279-128.446417-7.091512-6.532787-7.653307-17.547655-1.116427-24.642237 3.359514-3.736091 8.213056-5.78782 12.880355-5.78782 4.29277 0 8.399297 1.496074 11.758812 4.481058 84.572164 76.914764 193.603393 119.482255 307.10954 119.482255 113.511263 0 222.542492-42.38125 307.113633-119.482255 7.092535-6.535857 18.110473-5.975085 24.64019 1.121544 6.537903 7.092535 5.977132 18.10945-1.116427 24.64019C750.552629 495.364367 633.12108 541.103084 510.834966 541.103084L510.834966 541.103084zM510.834966 541.103084M953.487551 524.111085c-120.975259 112.76425-278.17351 174.934195-442.466344 174.934195-164.473959 0-321.671187-62.169945-442.461227-174.934195-7.092535-6.53074-7.465019-17.547655-0.935302-24.64019 6.53688-7.096628 17.552771-7.470135 24.645306-0.934279C206.715527 605.324758 355.323123 664.131095 511.022231 664.131095c155.519006 0 304.311821-58.806337 418.756339-165.594479 3.360538-3.173273 7.653307-4.6673 11.9471-4.6673 4.6673 0 9.334599 1.86958 12.69309 5.601578C960.769398 506.56343 960.393845 517.579321 953.487551 524.111085L953.487551 524.111085zM953.487551 524.111085"  horiz-adv-x="1024" />

    
    <glyph glyph-name="dizhi" unicode="&#58920;" d="M725.037774 547.400376c0 108.302227-88.216713 196.089961-197.035723 196.089961-108.816501 0-197.025688-87.787734-197.025688-196.089961 0-108.29721 88.207933-196.082435 197.025688-196.082435C636.821061 351.319195 725.037774 439.10442 725.037774 547.400376L725.037774 547.400376zM374.754832 547.400376c0 84.219178 68.607842 152.515947 153.247219 152.515947 84.639377 0 153.248473-68.298024 153.248473-152.515947 0-84.227958-68.609097-152.505913-153.248473-152.505913C443.362675 394.894463 374.754832 463.172418 374.754832 547.400376L374.754832 547.400376zM878.286247 547.400376c0 192.515133-156.817029 348.599637-350.284196 348.599637-193.468421 0-350.284196-156.084503-350.284196-348.599637 0-192.503845 350.284196-610.036194 350.284196-610.036194S878.286247 354.896531 878.286247 547.400376L878.286247 547.400376zM528.002051 852.433525c169.26621 0 306.506981-136.559672 306.506981-305.033149 0-168.467205-306.506981-544.683326-306.506981-544.683326S221.506359 378.94446 221.506359 547.400376C221.506359 715.873852 358.744622 852.433525 528.002051 852.433525L528.002051 852.433525zM682.848536 77.015767c-9.58681-13.090141-18.945332-25.649702-27.935083-37.565795 93.481117-10.715703 157.701329-32.899704 157.701329-58.513031 0-36.089454-127.429437-65.361648-284.611475-65.361648-157.183293 0-284.601441 29.272194-284.601441 65.361648 0 25.614581 64.208923 47.797328 157.688786 58.513031-8.989751 11.916092-18.345765 24.476908-27.925049 37.565795-103.291197-18.347019-173.55224-54.486646-173.55224-96.08008 0-60.173758 147.027019-108.935662 328.389944-108.935662s328.389944 48.761904 328.389944 108.935662c0 41.59218-70.261043 77.73306-173.550986 96.08008L682.848536 77.015767zM682.848536 77.015767"  horiz-adv-x="1057" />

    
    <glyph glyph-name="xitongtongzhi" unicode="&#58916;" d="M516.408915 814.176436c-0.753153 1.828648-1.954515 3.384074-3.206018 4.859681-0.299829 0.322341-0.402159 0.723477-0.701988 1.028423-0.199545 0.199545-0.453325 0.248663-0.653893 0.448208-1.551332 1.402953-3.258207 2.65548-5.208629 3.457752-2.204202 0.928139-4.562922 1.402953-6.91755 1.402953l0 0c-0.050142 0-0.100284-0.024559-0.148379-0.024559-2.306532-0.023536-4.608971-0.474814-6.815219-1.378393-2.205225-0.925069-4.209882-2.254344-5.863545-3.90596L202.010365 544.822802 84.264661 544.822802c-10.019191 0-18.135032-8.145517-18.135032-18.139126l0-290.172799c0-10.023284 8.115841-18.140149 18.135032-18.140149l117.744681 0 284.83728-270.40457c1.653663-1.706875 3.711532-3.006474 5.912663-3.961218 2.254344-0.899486 4.560876-1.378393 6.967692-1.378393 2.350534 0 4.709255 0.478907 6.913457 1.378393 2.052752 0.874927 3.906983 2.156106 5.510504 3.682879 0.098237 0.127913 0.249687 0.127913 0.352017 0.25378 0.249687 0.225127 0.347924 0.547469 0.547469 0.826831 1.354857 1.502213 2.558265 3.130294 3.359514 5.036713 0.953721 2.230808 1.402953 4.581342 1.402953 6.962575L517.812891 807.185208C517.812891 809.565419 517.362636 811.945629 516.408915 814.176436L516.408915 814.176436 516.408915 814.176436zM216.437959 253.218398c-2.200108 0.928139-4.557806 1.402953-6.912433 1.402953L102.355691 254.621351 102.355691 513.330554 209.525526 513.330554c2.355651 0 4.707209-4.331655 6.912433-3.408633 2.205225 0.929162 4.208858 2.229784 5.91778 3.90596l259.231089 259.237229 0-782.966365L222.355739 249.286856C220.696959 250.964054 218.644207 252.294352 216.437959 253.218398L216.437959 253.218398 216.437959 253.218398zM644.774491 689.894875c-10.019191 0-18.136056-8.116865-18.136056-18.136056 0-10.023284 8.116865-18.139126 18.136056-18.139126 150.010549 0 272.061302-122.027218 272.061302-272.037766 0-149.984966-122.050754-272.037766-272.061302-272.037766-10.019191 0-18.136056-8.116865-18.136056-18.135032 0-10.019191 8.116865-18.136056 18.136056-18.136056 170.002882 0 313.093834 138.309042 313.093834 308.307831C957.868325 551.610392 814.777373 689.894875 644.774491 689.894875L644.774491 689.894875 644.774491 689.894875zM645.277958 253.692189c-10.073426 0-18.142196-8.115841-18.142196-18.134009 0-10.019191 8.068769-18.137079 18.142196-18.137079 90.235141 0 163.68499 73.427336 163.68499 163.686013 0 90.2597-73.449849 163.714665-163.68499 163.714665-10.073426 0-18.142196-8.145517-18.142196-18.139126 0-10.019191 8.068769-18.136056 18.142196-18.136056 70.242807 0 127.409808-57.168024 127.409808-127.440507C772.687766 310.860213 715.520765 253.692189 645.277958 253.692189L645.277958 253.692189 645.277958 253.692189zM645.277958 253.692189"  horiz-adv-x="1024" />

    
    <glyph glyph-name="shuiguan" unicode="&#58884;" d="M698.79022 801.170215c-20.389376 0-36.917818-16.528442-36.917818-36.917818l0-529.265222c0-20.384259 16.528442-36.906561 36.917818-36.906561s36.912701 16.522302 36.912701 36.906561L735.702921 764.252397C735.701898 784.641773 719.179596 801.170215 698.79022 801.170215zM605.943602 801.170215c-20.389376 0-36.912701-16.528442-36.912701-36.917818l0-529.265222c0-20.384259 16.522302-36.906561 36.912701-36.906561 20.384259 0 36.906561 16.522302 36.906561 36.906561L642.850164 764.252397C642.850164 784.641773 626.327862 801.170215 605.943602 801.170215zM513.102101 801.170215c-20.389376 0-36.912701-16.528442-36.912701-36.917818l0-529.265222c0-20.384259 16.523325-36.906561 36.912701-36.906561 20.37812 0 36.906561 16.522302 36.906561 36.906561L550.008662 764.252397C550.008662 784.641773 533.48022 801.170215 513.102101 801.170215zM420.271856 801.170215c-20.389376 0-36.94033-16.528442-36.94033-36.917818l0-529.265222c0-20.384259 16.550954-36.906561 36.94033-36.906561 20.389376 0 36.901445 16.522302 36.901445 36.906561L457.173301 764.252397C457.172277 784.641773 440.661232 801.170215 420.271856 801.170215zM218.343867 789.625274l0-255.536954-52.17122 0 0 72.965825c0 20.132526-16.303314 36.44812-36.447097 36.44812-20.12127 0-36.453237-16.315594-36.453237-36.44812l0-214.876905c0-20.12741 16.330944-36.443004 36.453237-36.443004 20.143783 0 36.447097 16.315594 36.447097 36.443004l0 69.339228 52.17122 0 0-251.895007c0-21.045315 18.448164-38.317701 42.043558-40.258912l0 292.15392 0 72.571852L260.387425 829.884187C236.792031 827.948091 218.343867 810.671613 218.343867 789.625274zM895.111514 645.33296c-20.143783 0-36.458353-16.325827-36.458353-36.453237l0-72.965825-52.166103 0L806.487058 789.625274c0 21.046339-18.448164 38.322817-42.032302 40.258912l0-293.969265 0-72.577992 0-293.975405c23.584138 1.941212 42.032302 19.213597 42.032302 40.258912L806.487058 463.33693l52.166103 0 0-69.339228c0-20.12127 16.314571-36.436864 36.458353-36.436864 20.12127 0 36.447097 16.315594 36.447097 36.436864L931.558611 608.880747C931.558611 629.008156 915.232784 645.33296 895.111514 645.33296zM291.868417 138.623453c2.094708-0.644683 4.243651-0.979304 6.453992-0.961908l57.908898 0.037862c5.803169 0 11.256368 2.264577 15.357779 6.372128 4.096295 4.111644 6.349615 9.576099 6.333242 15.373129l-0.021489 28.938076c-0.01228 8.902764-5.664 16.776082-13.558807 20.068058L364.342032 764.252397c0 20.389376-16.538675 36.917818-36.928051 36.917818-20.390399 0-36.902468-16.528442-36.902468-36.917818l0-555.656289c-2.814092-1.073448-5.403057-2.718925-7.602142-4.91494-4.096295-4.107551-6.360871-9.577123-6.344498-15.368012l0.022513-28.965705C276.587386 149.781584 282.745642 141.451872 291.868417 138.623453zM356.231307 123.211439l-57.908898-0.037862c-5.814426-0.010233-11.245112-2.269693-15.357779-6.371104-4.101411-4.101411-6.349615-9.565866-6.338359-15.369036l14.537088-114.898867c0.005117-2.931772 0.61296-5.638417 1.5104-8.138354l69.629847 0.060375c0.815575 2.318812 1.312902 4.725628 1.301645 7.235798l14.406105 116.731608C377.949958 113.077637 368.115985 123.250324 356.231307 123.211439zM380.017036-36.010913l-9.335622 0-9.839089-0.005117-66.867944-0.064468-10.003841 0-9.144264-0.005117c-3.363607 0.005117-6.502088-1.312902-8.877181-3.680832-2.361791-2.375094-3.669576-5.51869-3.669576-8.882298l-0.011256-3.850701c0.011256-5.517667 3.561106-10.341532 8.839319-11.977799 1.203408-0.366344 2.466168-0.568958 3.736091-0.546446l105.190761 0.093121c6.924713-0.027629 12.546757 5.610788 12.546757 12.535501l-0.01535 3.828188C392.563794-41.77008 386.871141-36.048775 380.017036-36.010913z"  horiz-adv-x="1024" />

    
    <glyph glyph-name="chuangjianhetou" unicode="&#58980;" d="M937.851 527.168c-11.252 0-20.358-9.125-20.358-20.359v-447.88c0-44.971-36.461-81.433-81.433-81.433l-651.462 0c-44.971 0-81.433 36.461-81.433 81.433l0 651.462c0 44.971 36.461 81.433 81.433 81.433h447.881c11.251 0 20.359 9.106 20.359 20.359 0 11.234-9.106 20.358-20.359 20.358l-447.881-0c-67.457 0-122.149-54.693-122.149-122.149v-651.462c0-67.477 54.692-122.149 122.149-122.149h651.462c67.477 0 122.149 54.672 122.149 122.149v447.88c0 11.234-9.106 20.359-20.359 20.359zM286.39 160.721l173.76 29.803 468.238 468.237c18.428 18.429 29.821 43.876 29.821 71.989 0 56.224-45.568 101.791-101.791 101.791-28.113 0-53.561-11.392-71.97-29.82l-468.238-468.239-29.82-173.76zM813.237 773.931c11.055 11.055 26.324 17.893 43.182 17.893 33.719 0 61.075-27.355 61.075-61.075 0-16.859-6.839-32.147-17.894-43.202l-26.324-26.303-86.364 86.364 26.324 26.324zM758.127 718.822l86.363-86.363-374.877-374.898 0 86.383h-86.364l374.878 374.878zM352.99 303.227h75.906v-75.906l-91.611-15.707 15.706 91.613z"  horiz-adv-x="1024" />

    
    <glyph glyph-name="touxiang" unicode="&#58972;" d="M512.277316 833.415616c-247.520373 0-448.185602-200.661136-448.185602-448.186625 0-247.520373 200.665229-448.185602 448.185602-448.185602 247.521396 0 448.185602 200.665229 448.185602 448.185602C960.462918 632.75448 759.798712 833.415616 512.277316 833.415616L512.277316 833.415616zM512.277316-34.466744c-230.831272 0-419.695734 188.864462-419.695734 419.695734 0 230.836389 188.864462 419.700851 419.695734 419.700851 230.836389 0 419.696758-188.864462 419.696758-419.700851C931.974074 154.397718 743.109612-34.466744 512.277316-34.466744L512.277316-34.466744zM512.277316-34.466744M766.376525 135.334547c-0.060375 0.150426-0.12075 0.294712-0.179079 0.444115-0.047072 0.11154-0.094144 0.226151-0.141216 0.338714-30.740118 75.80243-94.447069 134.707005-173.33886 158.928662 69.52854 30.869055 118.031207 100.504018 118.031207 181.482331 0 109.614513-88.856747 198.47126-198.47126 198.47126-109.61349 0-198.47126-88.856747-198.47126-198.47126 0-80.978313 48.498574-150.618393 118.031207-181.482331-78.890768-24.220634-142.598742-83.126232-173.34193-158.932756-0.047072-0.107447-0.090051-0.217964-0.132006-0.329505-0.060375-0.150426-0.124843-0.298805-0.188288-0.449231l0.020466-0.00921c-0.581238-1.582031-0.913812-3.28072-0.913812-5.064342 0-8.127098 6.585999-14.713097 14.713097-14.713097 6.509251 0 12.022825 4.229325 13.960966 10.088776 39.216163 83.070974 128.6081 152.107303 226.323609 152.107303 97.535407 0 186.854689-68.792782 226.178299-151.657049 1.799996-6.090718 7.429203-10.539031 14.105253-10.539031 8.127098 0 14.71412 6.585999 14.71412 14.713097 0 1.783623-0.333598 3.482311-0.915859 5.064342L766.376525 135.334547 766.376525 135.334547zM342.861812 476.52837c0 93.566002 75.849502 169.416528 169.415504 169.416528s169.416528-75.850525 169.416528-169.416528c0-93.566002-75.850525-169.415504-169.416528-169.415504S342.861812 382.962368 342.861812 476.52837L342.861812 476.52837zM342.861812 476.52837"  horiz-adv-x="1024" />

    
    </font>
</defs>
</svg>
